<svg width="175" height="175" viewBox="0 0 175 175" fill="none" xmlns="http://www.w3.org/2000/svg">
<circle cx="87.5" cy="87.5" r="87.5" fill="#F77F00" fill-opacity="0.5"/>
<path d="M87.5 0C98.9907 1.37025e-07 110.369 2.26326 120.985 6.66054C131.601 11.0578 141.247 17.503 149.372 25.6282C157.497 33.7533 163.942 43.3992 168.339 54.0152C172.737 64.6312 175 76.0094 175 87.5C175 98.9907 172.737 110.369 168.339 120.985C163.942 131.601 157.497 141.247 149.372 149.372C141.247 157.497 131.601 163.942 120.985 168.339C110.369 172.737 98.9906 175 87.5 175L87.5 87.5L87.5 0Z" fill="#F77F00"/>
</svg>
