<svg width="175" height="175" viewBox="0 0 175 175" fill="none" xmlns="http://www.w3.org/2000/svg">
<circle cx="87.5" cy="87.5" r="87.5" fill="#F77F00" fill-opacity="0.5"/>
<path d="M87.5 0C101.308 1.64664e-07 114.921 3.26804 127.224 9.53693C139.528 15.8058 150.173 24.8975 158.289 36.0688C166.405 47.24 171.763 60.1736 173.923 73.812C176.083 87.4504 174.984 101.406 170.717 114.539C166.45 127.672 159.136 139.608 149.372 149.372C139.608 159.136 127.672 166.45 114.539 170.717C101.406 174.984 87.4504 176.083 73.812 173.923C60.1736 171.763 47.2401 166.405 36.0688 158.289L87.5 87.5L87.5 0Z" fill="#F77F00"/>
</svg>
