<svg width="175" height="175" viewBox="0 0 175 175" fill="none" xmlns="http://www.w3.org/2000/svg">
<circle cx="87.5" cy="87.5" r="87.5" fill="#F77F00" fill-opacity="0.5"/>
<path d="M87.5 0C103.637 1.92431e-07 119.46 4.46245 133.219 12.894C146.978 21.3255 158.137 33.3977 165.463 47.7758C172.789 62.154 175.996 78.278 174.73 94.3652C173.464 110.452 167.774 125.876 158.289 138.931C148.804 151.986 135.893 162.164 120.985 168.339C106.076 174.515 89.7503 176.447 73.812 173.923C57.8737 171.398 42.9439 164.516 30.6733 154.036C18.4027 143.555 9.26915 129.886 4.28256 114.539L87.5 87.5L87.5 0Z" fill="#F77F00"/>
</svg>
