<svg width="175" height="175" viewBox="0 0 175 175" fill="none" xmlns="http://www.w3.org/2000/svg">
<circle cx="87.5" cy="87.5" r="87.5" fill="#F77F00" fill-opacity="0.5"/>
<path d="M87.5 0C105.978 2.2035e-07 123.982 5.84981 138.931 16.711C153.88 27.5722 165.007 42.8872 170.717 60.461C176.428 78.0348 176.428 96.9652 170.717 114.539C165.007 132.113 153.88 147.428 138.931 158.289C123.982 169.15 105.978 175 87.5 175C69.0218 175 51.0179 169.15 36.0688 158.289C21.1196 147.428 9.99262 132.113 4.28255 114.539C-1.42752 96.9652 -1.42752 78.0348 4.28256 60.461L87.5 87.5L87.5 0Z" fill="#F77F00"/>
</svg>
