<svg width="170" height="170" viewBox="0 0 170 170" fill="none" xmlns="http://www.w3.org/2000/svg">
<g clip-path="url(#clip0_5_3047)">
<path d="M72.1602 92.3128L54.4826 109.991C52.6664 111.788 50.2143 112.796 47.659 112.796C45.1036 112.796 42.6515 111.788 40.8354 109.991L23.1577 92.3128C21.3601 90.4967 20.3518 88.0446 20.3518 85.4893C20.3518 82.9339 21.3601 80.4818 23.1577 78.6657L40.8354 60.988C42.6515 59.1904 45.1036 58.1821 47.659 58.1821C50.2143 58.1821 52.6664 59.1904 54.4825 60.988L72.1602 78.6657C73.9578 80.4818 74.9661 82.9339 74.9661 85.4893C74.9661 88.0446 73.9578 90.4967 72.1602 92.3128ZM28.461 83.969C28.0696 84.3784 27.8512 84.9229 27.8512 85.4893C27.8512 86.0556 28.0696 86.6002 28.461 87.0095L46.1387 104.687C46.5419 105.09 47.0888 105.317 47.659 105.317C48.2292 105.317 48.776 105.09 49.1792 104.687L66.8569 87.0095C67.2601 86.6063 67.4866 86.0595 67.4866 85.4893C67.4866 84.919 67.2601 84.3722 66.8569 83.969L49.1792 66.2913C48.776 65.8881 48.2292 65.6616 47.659 65.6616C47.0887 65.6616 46.5419 65.8881 46.1387 66.2913L28.461 83.969Z" fill="white"/>
<path d="M109.99 54.4828L92.3127 72.1604C90.4965 73.958 88.0444 74.9663 85.4891 74.9663C82.9338 74.9663 80.4817 73.958 78.6655 72.1604L60.9879 54.4828C59.1903 52.6666 58.182 50.2145 58.182 47.6592C58.182 45.1039 59.1903 42.6518 60.9879 40.8356L78.6655 23.1579C80.4817 21.3604 82.9338 20.352 85.4891 20.352C88.0444 20.352 90.4965 21.3604 92.3127 23.1579L109.99 40.8356C111.788 42.6518 112.796 45.1039 112.796 47.6592C112.796 50.2145 111.788 52.6666 109.99 54.4828ZM66.2912 46.1389C65.888 46.5421 65.6614 47.089 65.6614 47.6592C65.6614 48.2294 65.888 48.7763 66.2912 49.1795L83.9688 66.8571C84.372 67.2603 84.9189 67.4869 85.4891 67.4869C86.0593 67.4869 86.6062 67.2603 87.0094 66.8571L104.687 49.1795C105.09 48.7763 105.317 48.2294 105.317 47.6592C105.317 47.089 105.09 46.5421 104.687 46.1389L87.0094 28.4612C86.6062 28.058 86.0593 27.8315 85.4891 27.8315C84.9189 27.8315 84.372 28.058 83.9688 28.4612L66.2912 46.1389Z" fill="white"/>
<path d="M108.718 128.87L91.04 146.548C89.2238 148.345 86.7717 149.354 84.2164 149.354C81.6611 149.354 79.2089 148.345 77.3928 146.548L59.7151 128.87C57.9176 127.054 56.9092 124.602 56.9092 122.047C56.9092 119.491 57.9175 117.039 59.7151 115.223L77.3928 97.5454C79.2089 95.7478 81.661 94.7395 84.2164 94.7395C86.7717 94.7395 89.2238 95.7478 91.0399 97.5454L108.718 115.223C110.515 117.039 111.524 119.491 111.524 122.047C111.524 124.602 110.515 127.054 108.718 128.87ZM65.0184 120.526C64.6152 120.93 64.3887 121.476 64.3887 122.047C64.3887 122.617 64.6152 123.164 65.0184 123.567L82.6961 141.245C83.1055 141.636 83.65 141.854 84.2164 141.854C84.7827 141.854 85.3273 141.636 85.7367 141.245L103.414 123.567C103.818 123.164 104.044 122.617 104.044 122.047C104.044 121.476 103.818 120.93 103.414 120.526L85.7366 102.849C85.3334 102.445 84.7866 102.219 84.2164 102.219C83.6462 102.219 83.0993 102.445 82.6961 102.849L65.0184 120.526Z" fill="white"/>
<path d="M146.548 91.0401L128.87 108.718C127.054 110.515 124.602 111.524 122.047 111.524C119.491 111.524 117.039 110.515 115.223 108.718L97.5453 91.0401C95.7477 89.224 94.7394 86.7719 94.7394 84.2166C94.7394 81.6612 95.7477 79.2091 97.5453 77.393L115.223 59.7153C117.039 57.9177 119.491 56.9094 122.047 56.9094C124.602 56.9094 127.054 57.9177 128.87 59.7153L146.548 77.393C148.345 79.2091 149.354 81.6612 149.354 84.2166C149.354 86.7719 148.345 89.224 146.548 91.0401ZM102.849 82.6963C102.445 83.0995 102.219 83.6463 102.219 84.2166C102.219 84.7868 102.445 85.3336 102.849 85.7368L120.526 103.415C120.929 103.818 121.476 104.044 122.047 104.044C122.617 104.044 123.164 103.818 123.567 103.415L141.244 85.7368C141.648 85.3336 141.874 84.7868 141.874 84.2166C141.874 83.6463 141.648 83.0995 141.244 82.6963L123.567 65.0186C123.164 64.6154 122.617 64.3889 122.047 64.3889C121.476 64.3889 120.929 64.6154 120.526 65.0186L102.849 82.6963Z" fill="white"/>
</g>
<defs>
<clipPath id="clip0_5_3047">
<rect width="120" height="120" fill="white" transform="translate(0 84.8528) rotate(-45)"/>
</clipPath>
</defs>
</svg>
