<svg width="100" height="100" viewBox="0 0 100 100" fill="none" xmlns="http://www.w3.org/2000/svg">
<path d="M71.875 25H15.625C14.7962 25 14.0013 25.3292 13.4153 25.9153C12.8292 26.5013 12.5 27.2962 12.5 28.125V84.375C12.5 85.2038 12.8292 85.9987 13.4153 86.5847C14.0013 87.1708 14.7962 87.5 15.625 87.5H71.875C72.7038 87.5 73.4987 87.1708 74.0847 86.5847C74.6708 85.9987 75 85.2038 75 84.375V28.125C75 27.2962 74.6708 26.5013 74.0847 25.9153C73.4987 25.3292 72.7038 25 71.875 25ZM68.75 81.25H18.75V31.25H68.75V81.25ZM87.5 15.625V71.875C87.5 72.7038 87.1708 73.4987 86.5847 74.0847C85.9987 74.6708 85.2038 75 84.375 75C83.5462 75 82.7513 74.6708 82.1653 74.0847C81.5792 73.4987 81.25 72.7038 81.25 71.875V18.75H28.125C27.2962 18.75 26.5013 18.4208 25.9153 17.8347C25.3292 17.2487 25 16.4538 25 15.625C25 14.7962 25.3292 14.0013 25.9153 13.4153C26.5013 12.8292 27.2962 12.5 28.125 12.5H84.375C85.2038 12.5 85.9987 12.8292 86.5847 13.4153C87.1708 14.0013 87.5 14.7962 87.5 15.625Z" fill="white"/>
</svg>
