<svg width="230" height="230" viewBox="0 0 230 230" fill="none" xmlns="http://www.w3.org/2000/svg">
<path d="M115 9.775C115 4.37643 119.385 -0.0431565 124.764 0.415156C144.672 2.11134 163.856 8.97256 180.385 20.3964C199.602 33.6783 214.319 52.4979 222.576 74.3504C230.833 96.2029 232.24 120.052 226.608 142.724C220.977 165.395 208.574 185.814 191.051 201.263C173.528 216.711 151.715 226.457 128.517 229.203C105.318 231.949 81.8334 227.564 61.1881 216.633C40.5428 205.702 23.7161 188.743 12.9474 168.012C3.68535 150.182 -0.717361 130.289 0.0949598 110.325C0.314447 104.931 5.24871 101.135 10.6047 101.812C15.9607 102.488 19.7012 107.384 19.5757 112.781C19.2033 128.791 22.8657 144.695 30.2964 159C39.2343 176.206 53.2005 190.283 70.3361 199.355C87.4717 208.428 106.964 212.067 126.219 209.788C145.474 207.509 163.578 199.42 178.122 186.598C192.666 173.776 202.961 156.828 207.635 138.011C212.309 119.193 211.142 99.3984 204.288 81.2608C197.434 63.1232 185.22 47.503 169.269 36.479C156.009 27.3141 140.689 21.6873 124.758 20.0501C119.388 19.4982 115 15.1736 115 9.775Z" fill="#F77F00"/>
</svg>
