<svg width="110" height="110" viewBox="0 0 110 110" fill="none" xmlns="http://www.w3.org/2000/svg">
<g clip-path="url(#clip0_12_128)">
<path d="M105.972 41.5659L71.2076 6.79678C66.905 2.50673 61.0769 0.0976562 55.001 0.0976562C48.925 0.0976562 43.0969 2.50673 38.7943 6.79678L4.02972 41.5659C2.74834 42.8391 1.73242 44.354 1.04085 46.0227C0.349282 47.6914 -0.00417381 49.4808 0.000970892 51.2872V96.2818C0.000970892 99.9285 1.44963 103.426 4.02825 106.005C6.60688 108.583 10.1042 110.032 13.751 110.032H96.251C99.8977 110.032 103.395 108.583 105.974 106.005C108.552 103.426 110.001 99.9285 110.001 96.2818V51.2872C110.006 49.4808 109.653 47.6914 108.961 46.0227C108.27 44.354 107.254 42.8391 105.972 41.5659ZM68.751 100.865H41.251V82.8343C41.251 79.1876 42.6996 75.6902 45.2783 73.1116C47.8569 70.5329 51.3542 69.0843 55.001 69.0843C58.6477 69.0843 62.1451 70.5329 64.7237 73.1116C67.3023 75.6902 68.751 79.1876 68.751 82.8343V100.865ZM100.834 96.2818C100.834 97.4974 100.351 98.6631 99.4919 99.5227C98.6323 100.382 97.4665 100.865 96.251 100.865H77.9176V82.8343C77.9176 76.7564 75.5032 70.9275 71.2055 66.6297C66.9078 62.332 61.0789 59.9176 55.001 59.9176C48.9231 59.9176 43.0942 62.332 38.7964 66.6297C34.4987 70.9275 32.0843 76.7564 32.0843 82.8343V100.865H13.751C12.5354 100.865 11.3696 100.382 10.5101 99.5227C9.65052 98.6631 9.16764 97.4974 9.16764 96.2818V51.2872C9.17189 50.0725 9.65434 48.9084 10.5106 48.0468L45.2751 13.2914C47.8588 10.7198 51.3557 9.2761 55.001 9.2761C58.6463 9.2761 62.1432 10.7198 64.7268 13.2914L99.4914 48.0605C100.344 48.9187 100.826 50.0773 100.834 51.2872V96.2818Z" fill="#F77F00"/>
</g>
<defs>
<clipPath id="clip0_12_128">
<rect width="110" height="110" fill="white"/>
</clipPath>
</defs>
</svg>
