<svg width="130" height="130" viewBox="0 0 130 130" fill="none" xmlns="http://www.w3.org/2000/svg">
<g clip-path="url(#clip0_24_295)">
<path d="M65.0012 10.8331C72.1864 10.8567 79.2957 12.3051 85.9175 15.0944C92.5393 17.8837 98.5422 21.9585 103.579 27.0832H86.6679C85.2313 27.0832 83.8535 27.6538 82.8377 28.6697C81.8219 29.6855 81.2512 31.0632 81.2512 32.4998C81.2512 33.9364 81.8219 35.3142 82.8377 36.33C83.8535 37.3458 85.2313 37.9165 86.6679 37.9165H109.109C111.776 37.9151 114.334 36.8548 116.22 34.9688C118.106 33.0827 119.166 30.525 119.168 27.8577V5.41648C119.168 3.97989 118.597 2.60214 117.581 1.58632C116.566 0.570499 115.188 -0.00018366 113.751 -0.00018366C112.315 -0.00018366 110.937 0.570499 109.921 1.58632C108.905 2.60214 108.335 3.97989 108.335 5.41648V16.6723C99.3817 8.60935 88.361 3.19787 76.5067 1.04387C64.6524 -1.11012 52.4325 0.0784227 41.2155 4.47641C29.9984 8.87439 20.2271 16.3082 12.9958 25.9452C5.76457 35.5823 1.35884 47.0422 0.272032 59.0415C0.202067 59.7958 0.289992 60.5564 0.530206 61.2749C0.77042 61.9933 1.15765 62.6539 1.66724 63.2144C2.17682 63.7749 2.79758 64.2232 3.48995 64.5306C4.18233 64.838 4.93115 64.9978 5.6887 64.9998C7.01355 65.0167 8.29701 64.5385 9.28785 63.6589C10.2787 62.7793 10.9056 61.5615 11.0458 60.244C12.2516 46.7605 18.4556 34.2153 28.4391 25.0727C38.4226 15.9301 51.464 10.851 65.0012 10.8331Z" fill="#F77F00"/>
<path d="M124.319 65.0013C122.994 64.9844 121.71 65.4625 120.72 66.3422C119.729 67.2218 119.102 68.4396 118.962 69.7571C118.066 80.0663 114.232 89.9023 107.915 98.0983C101.598 106.294 93.0622 112.506 83.3207 115.997C73.5793 119.488 63.041 120.111 52.956 117.793C42.871 115.475 33.6626 110.312 26.4233 102.918H43.3341C44.7707 102.918 46.1484 102.347 47.1643 101.332C48.1801 100.316 48.7508 98.9379 48.7508 97.5013C48.7508 96.0647 48.1801 94.687 47.1643 93.6712C46.1484 92.6553 44.7707 92.0847 43.3341 92.0847H20.8929C19.5717 92.0839 18.2634 92.3436 17.0427 92.8489C15.822 93.3541 14.7128 94.095 13.7787 95.0292C12.8445 95.9634 12.1036 97.0726 11.5983 98.2933C11.0931 99.514 10.8334 100.822 10.8341 102.143V124.585C10.8341 126.021 11.4048 127.399 12.4206 128.415C13.4364 129.431 14.8142 130.001 16.2508 130.001C17.6874 130.001 19.0651 129.431 20.0809 128.415C21.0968 127.399 21.6674 126.021 21.6674 124.585V113.329C30.6203 121.392 41.6409 126.803 53.4952 128.957C65.3496 131.111 77.5695 129.923 88.7865 125.525C100.004 121.127 109.775 113.693 117.006 104.056C124.237 94.4188 128.643 82.9589 129.73 70.9596C129.8 70.2053 129.712 69.4447 129.472 68.7262C129.232 68.0078 128.844 67.3472 128.335 66.7867C127.825 66.2261 127.204 65.7779 126.512 65.4705C125.82 65.1631 125.071 65.0033 124.313 65.0013H124.319Z" fill="#F77F00"/>
</g>
<defs>
<clipPath id="clip0_24_295">
<rect width="130" height="130" fill="white"/>
</clipPath>
</defs>
</svg>
