<svg width="130" height="130" viewBox="0 0 130 130" fill="none" xmlns="http://www.w3.org/2000/svg">
<g clip-path="url(#clip0_124_2801)">
<path d="M65.001 10.8331C72.1863 10.8567 79.2955 12.3051 85.9173 15.0944C92.5391 17.8837 98.542 21.9585 103.579 27.0832H86.6677C85.2311 27.0832 83.8533 27.6538 82.8375 28.6697C81.8217 29.6855 81.251 31.0632 81.251 32.4998C81.251 33.9364 81.8217 35.3142 82.8375 36.33C83.8533 37.3458 85.2311 37.9165 86.6677 37.9165H109.109C111.776 37.9151 114.334 36.8548 116.22 34.9688C118.106 33.0827 119.166 30.525 119.168 27.8577V5.41648C119.168 3.97989 118.597 2.60214 117.581 1.58632C116.565 0.570499 115.188 -0.00018366 113.751 -0.00018366C112.314 -0.00018366 110.937 0.570499 109.921 1.58632C108.905 2.60214 108.334 3.97989 108.334 5.41648V16.6723C99.3815 8.60935 88.3609 3.19787 76.5065 1.04387C64.6522 -1.11012 52.4323 0.0784227 41.2153 4.47641C29.9982 8.87439 20.2269 16.3082 12.9957 25.9452C5.76439 35.5823 1.35866 47.0422 0.271849 59.0415C0.201884 59.7958 0.289809 60.5564 0.530023 61.2749C0.770237 61.9933 1.15747 62.6539 1.66705 63.2144C2.17664 63.7749 2.79739 64.2232 3.48977 64.5306C4.18215 64.838 4.93097 64.9978 5.68852 64.9998C7.01337 65.0167 8.29683 64.5385 9.28767 63.6589C10.2785 62.7793 10.9054 61.5615 11.0456 60.244C12.2514 46.7605 18.4555 34.2153 28.439 25.0727C38.4224 15.9301 51.4638 10.851 65.001 10.8331Z" fill="#003049"/>
<path d="M124.319 65.0013C122.994 64.9844 121.71 65.4625 120.719 66.3422C119.729 67.2218 119.102 68.4396 118.961 69.7571C118.066 80.0663 114.232 89.9023 107.915 98.0983C101.598 106.294 93.062 112.506 83.3206 115.997C73.5792 119.488 63.0409 120.111 52.9559 117.793C42.8709 115.475 33.6625 110.312 26.4232 102.918H43.334C44.7706 102.918 46.1483 102.347 47.1642 101.332C48.18 100.316 48.7507 98.9379 48.7507 97.5013C48.7507 96.0647 48.18 94.687 47.1642 93.6712C46.1483 92.6553 44.7706 92.0847 43.334 92.0847H20.8927C19.5716 92.0839 18.2633 92.3436 17.0426 92.8489C15.8219 93.3541 14.7127 94.095 13.7785 95.0292C12.8444 95.9634 12.1035 97.0726 11.5982 98.2933C11.093 99.514 10.8333 100.822 10.834 102.143V124.585C10.834 126.021 11.4047 127.399 12.4205 128.415C13.4363 129.431 14.8141 130.001 16.2507 130.001C17.6872 130.001 19.065 129.431 20.0808 128.415C21.0966 127.399 21.6673 126.021 21.6673 124.585V113.329C30.6201 121.392 41.6408 126.803 53.4951 128.957C65.3494 131.111 77.5693 129.923 88.7864 125.525C100.003 121.127 109.775 113.693 117.006 104.056C124.237 94.4188 128.643 82.9589 129.73 70.9596C129.8 70.2053 129.712 69.4447 129.472 68.7262C129.231 68.0078 128.844 67.3472 128.335 66.7867C127.825 66.2261 127.204 65.7779 126.512 65.4705C125.82 65.1631 125.071 65.0033 124.313 65.0013H124.319Z" fill="#003049"/>
</g>
<defs>
<clipPath id="clip0_124_2801">
<rect width="130" height="130" fill="white"/>
</clipPath>
</defs>
</svg>
