<svg width="130" height="130" viewBox="0 0 130 130" fill="none" xmlns="http://www.w3.org/2000/svg">
<g clip-path="url(#clip0_24_307)">
<path d="M129.111 47.6358C128.003 44.109 125.789 41.0324 122.797 38.861C119.805 36.6896 116.194 35.5386 112.498 35.5783H88.8322L81.6443 13.175C80.514 9.64851 78.2929 6.57215 75.3012 4.38951C72.3096 2.20687 68.7021 1.03075 64.9989 1.03075C61.2957 1.03075 57.6882 2.20687 54.6966 4.38951C51.705 6.57215 49.4838 9.64851 48.3535 13.175L41.1656 35.5783H17.5002C13.8154 35.5836 10.2266 36.7531 7.2463 38.9199C4.26599 41.0867 2.04663 44.1399 0.905233 47.6433C-0.236163 51.1468 -0.241215 54.9214 0.890799 58.4279C2.02281 61.9345 4.23399 64.9936 7.20849 67.1683L26.4702 81.2517L19.1468 103.931C17.9633 107.449 17.9484 111.255 19.1041 114.781C20.2598 118.308 22.5244 121.367 25.5602 123.502C28.5439 125.705 32.1598 126.885 35.8689 126.867C39.578 126.848 43.1819 125.632 46.1435 123.399L64.9989 109.521L83.8597 123.382C86.8381 125.573 90.4345 126.763 94.1317 126.781C97.829 126.799 101.437 125.644 104.436 123.483C107.436 121.321 109.673 118.264 110.825 114.751C111.978 111.238 111.987 107.45 110.851 103.931L103.528 81.2517L122.811 67.1683C125.819 65.0209 128.057 61.9618 129.191 58.4439C130.326 54.9261 130.298 51.1364 129.111 47.6358ZM116.419 58.4204L93.9727 74.8275C93.0507 75.5001 92.3647 76.4467 92.0126 77.5322C91.6605 78.6178 91.6602 79.7868 92.0118 80.8725L100.543 107.252C100.975 108.59 100.971 110.03 100.533 111.366C100.094 112.701 99.2432 113.864 98.1025 114.685C96.9617 115.507 95.5898 115.946 94.184 115.939C92.7781 115.932 91.4108 115.479 90.2785 114.645L68.2056 98.3954C67.2759 97.7125 66.1525 97.3442 64.9989 97.3442C63.8454 97.3442 62.7219 97.7125 61.7922 98.3954L39.7193 114.645C38.5877 115.49 37.2165 115.952 35.8045 115.965C34.3925 115.978 33.0132 115.541 31.8664 114.717C30.7196 113.893 29.865 112.725 29.4266 111.383C28.9881 110.041 28.9884 108.594 29.4277 107.252L37.986 80.8725C38.3376 79.7868 38.3374 78.6178 37.9852 77.5322C37.6331 76.4467 36.9471 75.5001 36.0252 74.8275L13.5785 58.4204C12.4481 57.5927 11.6081 56.429 11.1786 55.0954C10.7491 53.7618 10.752 52.3265 11.1869 50.9947C11.6219 49.6628 12.4666 48.5025 13.6004 47.6794C14.7342 46.8564 16.0991 46.4126 17.5002 46.4117H45.1252C46.2719 46.4116 47.3891 46.0476 48.3158 45.3721C49.2425 44.6965 49.9309 43.7443 50.2818 42.6525L58.6777 16.4846C59.1086 15.1455 59.9534 13.9777 61.0903 13.1493C62.2272 12.3208 63.5976 11.8745 65.0043 11.8745C66.411 11.8745 67.7815 12.3208 68.9184 13.1493C70.0553 13.9777 70.9 15.1455 71.331 16.4846L79.7268 42.6525C80.0777 43.7443 80.7661 44.6965 81.6928 45.3721C82.6195 46.0476 83.7367 46.4116 84.8835 46.4117H112.508C113.91 46.4126 115.274 46.8564 116.408 47.6794C117.542 48.5025 118.387 49.6628 118.822 50.9947C119.257 52.3265 119.26 53.7618 118.83 55.0954C118.401 56.429 117.561 57.5927 116.43 58.4204H116.419Z" fill="#F77F00"/>
</g>
<defs>
<clipPath id="clip0_24_307">
<rect width="130" height="130" fill="white"/>
</clipPath>
</defs>
</svg>
