<svg width="110" height="110" viewBox="0 0 110 110" fill="none" xmlns="http://www.w3.org/2000/svg">
<g clip-path="url(#clip0_58_239)">
<path d="M55 54.9998C60.439 54.9998 65.7558 53.3869 70.2782 50.3652C74.8005 47.3434 78.3253 43.0485 80.4067 38.0236C82.4881 32.9986 83.0327 27.4693 81.9716 22.1348C80.9105 16.8003 78.2914 11.9003 74.4454 8.05433C70.5995 4.20839 65.6995 1.58927 60.365 0.528173C55.0305 -0.532921 49.5012 0.0116712 44.4762 2.09308C39.4512 4.17449 35.1563 7.69923 32.1346 12.2216C29.1128 16.7439 27.5 22.0608 27.5 27.4998C27.5073 34.791 30.4069 41.7815 35.5626 46.9372C40.7183 52.0928 47.7088 54.9925 55 54.9998ZM55 9.16643C58.626 9.16643 62.1706 10.2417 65.1855 12.2562C68.2004 14.2707 70.5502 17.1339 71.9378 20.4839C73.3254 23.8339 73.6885 27.5201 72.9811 31.0764C72.2737 34.6327 70.5276 37.8994 67.9636 40.4634C65.3997 43.0274 62.133 44.7734 58.5767 45.4808C55.0203 46.1882 51.3341 45.8252 47.9841 44.4376C44.6342 43.05 41.7709 40.7001 39.7564 37.6852C37.7419 34.6703 36.6667 31.1258 36.6667 27.4998C36.6667 22.6375 38.5982 17.9743 42.0364 14.5361C45.4745 11.098 50.1377 9.16643 55 9.16643V9.16643Z" fill="#F77F00"/>
<path d="M55 64.1694C44.0635 64.1816 33.5785 68.5314 25.8452 76.2647C18.112 83.9979 13.7621 94.483 13.75 105.419C13.75 106.635 14.2329 107.801 15.0924 108.66C15.952 109.52 17.1178 110.003 18.3333 110.003C19.5489 110.003 20.7147 109.52 21.5742 108.66C22.4338 107.801 22.9167 106.635 22.9167 105.419C22.9167 96.9104 26.2969 88.7499 32.3137 82.7331C38.3304 76.7163 46.491 73.3361 55 73.3361C63.509 73.3361 71.6696 76.7163 77.6863 82.7331C83.7031 88.7499 87.0833 96.9104 87.0833 105.419C87.0833 106.635 87.5662 107.801 88.4258 108.66C89.2853 109.52 90.4511 110.003 91.6667 110.003C92.8822 110.003 94.048 109.52 94.9076 108.66C95.7671 107.801 96.25 106.635 96.25 105.419C96.2379 94.483 91.888 83.9979 84.1548 76.2647C76.4215 68.5314 65.9365 64.1816 55 64.1694V64.1694Z" fill="#F77F00"/>
</g>
<defs>
<clipPath id="clip0_58_239">
<rect width="110" height="110" fill="white"/>
</clipPath>
</defs>
</svg>
