<svg width="110" height="110" viewBox="0 0 110 110" fill="none" xmlns="http://www.w3.org/2000/svg">
<g clip-path="url(#clip0_51_902)">
<path d="M105.972 41.5659L71.2077 6.79678C66.9051 2.50673 61.077 0.0976562 55.001 0.0976562C48.9251 0.0976562 43.097 2.50673 38.7944 6.79678L4.02978 41.5659C2.7484 42.8391 1.73248 44.354 1.04091 46.0227C0.349343 47.6914 -0.00411277 49.4808 0.00103193 51.2872V96.2818C0.00103193 99.9285 1.44969 103.426 4.02831 106.005C6.60694 108.583 10.1043 110.032 13.751 110.032H96.251C99.8978 110.032 103.395 108.583 105.974 106.005C108.552 103.426 110.001 99.9285 110.001 96.2818V51.2872C110.006 49.4808 109.653 47.6914 108.961 46.0227C108.27 44.354 107.254 42.8391 105.972 41.5659V41.5659ZM68.751 100.865H41.251V82.8343C41.251 79.1876 42.6997 75.6902 45.2783 73.1116C47.8569 70.5329 51.3543 69.0843 55.001 69.0843C58.6478 69.0843 62.1451 70.5329 64.7238 73.1116C67.3024 75.6902 68.751 79.1876 68.751 82.8343V100.865ZM100.834 96.2818C100.834 97.4974 100.351 98.6631 99.4919 99.5227C98.6324 100.382 97.4666 100.865 96.251 100.865H77.9177V82.8343C77.9177 76.7564 75.5033 70.9275 71.2056 66.6297C66.9079 62.332 61.0789 59.9176 55.001 59.9176C48.9232 59.9176 43.0942 62.332 38.7965 66.6297C34.4988 70.9275 32.0844 76.7564 32.0844 82.8343V100.865H13.751C12.5355 100.865 11.3697 100.382 10.5101 99.5227C9.65058 98.6631 9.1677 97.4974 9.1677 96.2818V51.2872C9.17195 50.0725 9.6544 48.9084 10.5106 48.0468L45.2752 13.2914C47.8588 10.7198 51.3557 9.2761 55.001 9.2761C58.6463 9.2761 62.1432 10.7198 64.7269 13.2914L99.4915 48.0605C100.344 48.9187 100.827 50.0773 100.834 51.2872V96.2818Z" fill="#003049"/>
</g>
<defs>
<clipPath id="clip0_51_902">
<rect width="110" height="110" fill="white"/>
</clipPath>
</defs>
</svg>
