<svg width="130" height="130" viewBox="0 0 130 130" fill="none" xmlns="http://www.w3.org/2000/svg">
<g clip-path="url(#clip0_24_301)">
<path d="M113.75 81.25C109.44 81.25 105.307 82.962 102.26 86.0095C99.212 89.057 97.5 93.1902 97.5 97.5V113.75C97.5 118.06 99.212 122.193 102.26 125.24C105.307 128.288 109.44 130 113.75 130C118.06 130 122.193 128.288 125.24 125.24C128.288 122.193 130 118.06 130 113.75V97.5C130 93.1902 128.288 89.057 125.24 86.0095C122.193 82.962 118.06 81.25 113.75 81.25ZM119.167 113.75C119.167 115.187 118.596 116.564 117.58 117.58C116.564 118.596 115.187 119.167 113.75 119.167C112.313 119.167 110.936 118.596 109.92 117.58C108.904 116.564 108.333 115.187 108.333 113.75V97.5C108.333 96.0634 108.904 94.6857 109.92 93.6698C110.936 92.654 112.313 92.0833 113.75 92.0833C115.187 92.0833 116.564 92.654 117.58 93.6698C118.596 94.6857 119.167 96.0634 119.167 97.5V113.75Z" fill="#F77F00"/>
<path d="M70.4158 65V37.9167C70.4158 36.4801 69.8451 35.1023 68.8293 34.0865C67.8134 33.0707 66.4357 32.5 64.9991 32.5C63.5625 32.5 62.1848 33.0707 61.1689 34.0865C60.1531 35.1023 59.5824 36.4801 59.5824 37.9167V59.5833H43.3324C41.8958 59.5833 40.5181 60.154 39.5023 61.1698C38.4865 62.1857 37.9158 63.5634 37.9158 65C37.9158 66.4366 38.4865 67.8143 39.5023 68.8302C40.5181 69.846 41.8958 70.4167 43.3324 70.4167H64.9991C66.4357 70.4167 67.8134 69.846 68.8293 68.8302C69.8451 67.8143 70.4158 66.4366 70.4158 65Z" fill="#F77F00"/>
<path d="M124.584 10.8347C123.148 10.8347 121.77 11.4053 120.754 12.4212C119.738 13.437 119.168 14.8147 119.168 16.2513V29.1105C113.524 20.5932 105.952 13.5263 97.0653 8.4833C88.1791 3.44028 78.2291 0.563162 68.0228 0.08539C57.8165 -0.392382 47.6413 1.54265 38.3228 5.73348C29.0044 9.92431 20.8051 16.2529 14.3903 24.2057C7.97553 32.1585 3.52592 41.5116 1.40253 51.506C-0.720861 61.5004 -0.458226 71.8547 2.16912 81.7286C4.79648 91.6025 9.71454 100.718 16.5243 108.335C23.334 115.953 31.8435 121.857 41.3625 125.57C41.9916 125.813 42.6599 125.938 43.3342 125.939C44.5982 125.941 45.8231 125.501 46.7968 124.695C47.7704 123.888 48.4315 122.767 48.6656 121.525C48.8996 120.283 48.6918 118.998 48.0782 117.893C47.4647 116.788 46.4839 115.932 45.3058 115.474C37.2243 112.349 30.0104 107.331 24.2696 100.841C18.5288 94.3508 14.4287 86.5783 12.3135 78.1757C10.1983 69.7732 10.1297 60.9859 12.1135 52.5513C14.0972 44.1168 18.0754 36.2812 23.7142 29.7024C29.3529 23.1235 36.4876 17.9934 44.5194 14.7426C52.5511 11.4919 61.2455 10.2153 69.8728 11.0202C78.5 11.825 86.8082 14.6877 94.1001 19.368C101.392 24.0484 107.455 30.4097 111.779 37.918H97.5008C96.0642 37.918 94.6865 38.4887 93.6707 39.5045C92.6548 40.5203 92.0842 41.8981 92.0842 43.3347C92.0842 44.7712 92.6548 46.149 93.6707 47.1648C94.6865 48.1806 96.0642 48.7513 97.5008 48.7513H113.751C118.061 48.7513 122.194 47.0393 125.241 43.9918C128.289 40.9443 130.001 36.8111 130.001 32.5013V16.2513C130.001 14.8147 129.43 13.437 128.414 12.4212C127.399 11.4053 126.021 10.8347 124.584 10.8347Z" fill="#F77F00"/>
<path d="M83.3251 81.659C82.3351 81.2489 81.2457 81.1417 80.1947 81.351C79.1438 81.5602 78.1785 82.0764 77.421 82.8344L61.171 99.0845C60.1843 100.106 59.6383 101.474 59.6507 102.895C59.663 104.315 60.2327 105.673 61.237 106.678C62.2412 107.682 63.5998 108.252 65.0201 108.264C66.4403 108.276 67.8085 107.73 68.8301 106.744L75.8339 99.7399V124.581C75.8339 126.017 76.4046 127.395 77.4204 128.411C78.4362 129.427 79.814 129.997 81.2506 129.997C82.6871 129.997 84.0649 129.427 85.0807 128.411C86.0965 127.395 86.6672 126.017 86.6672 124.581V86.664C86.6675 85.5928 86.3501 84.5455 85.7552 83.6546C85.1604 82.7638 84.3147 82.0693 83.3251 81.659Z" fill="#F77F00"/>
</g>
<defs>
<clipPath id="clip0_24_301">
<rect width="130" height="130" fill="white"/>
</clipPath>
</defs>
</svg>
