<svg width="110" height="110" viewBox="0 0 110 110" fill="none" xmlns="http://www.w3.org/2000/svg">
<g clip-path="url(#clip0_51_892)">
<path d="M106.424 26.3218L92.6237 7.67685C90.9266 5.30421 88.6885 3.3702 86.0948 2.03511C83.5012 0.700017 80.6267 0.00229375 77.7095 -0.000236063H32.2887C29.3858 -0.00296084 26.5237 0.683703 23.938 2.00324C21.3523 3.32279 19.1169 5.23748 17.4158 7.58976L3.36788 26.3677C1.08063 29.5929 -0.100581 33.4722 0.00104415 37.4248C0.102669 41.3775 1.48166 45.1909 3.93163 48.2943L44.2283 104.798C45.5125 106.424 47.1493 107.737 49.0151 108.638C50.8809 109.539 52.9271 110.005 54.9991 110C57.1067 109.996 59.1853 109.508 61.0748 108.574C62.9644 107.641 64.6145 106.286 65.8983 104.614L105.874 48.7389C108.434 45.5901 109.876 41.681 109.976 37.6243C110.076 33.5675 108.826 29.5924 106.424 26.3218V26.3218ZM85.2125 13.0668L99.045 31.7577C99.1183 31.8585 99.1366 31.9777 99.21 32.0831H76.7883L70.2433 9.16643H77.7095C79.1806 9.17099 80.6292 9.52742 81.9344 10.2059C83.2397 10.8845 84.3636 11.8654 85.2125 13.0668V13.0668ZM54.9991 87.6239L42.6241 41.2498H67.3741L54.9991 87.6239ZM42.7433 32.0831L49.2883 9.16643H60.71L67.255 32.0831H42.7433ZM24.827 13.0027C25.6775 11.8174 26.7976 10.8513 28.095 10.1843C29.3924 9.51728 30.8299 9.16839 32.2887 9.16643H39.755L33.21 32.0831H10.6233C10.6875 31.9823 10.7058 31.8585 10.7791 31.7623L24.827 13.0027ZM11.2191 42.7393C10.8882 42.2719 10.6042 41.773 10.3712 41.2498H33.1458L46.8683 92.7206L11.2191 42.7393ZM63.1162 92.7664L76.8662 41.2498H99.7187C99.4234 41.9339 99.0497 42.5814 98.605 43.1793L63.1162 92.7664Z" fill="#F77F00"/>
</g>
<defs>
<clipPath id="clip0_51_892">
<rect width="110" height="110" fill="white"/>
</clipPath>
</defs>
</svg>
