<svg width="130" height="130" viewBox="0 0 130 130" fill="none" xmlns="http://www.w3.org/2000/svg">
<g clip-path="url(#clip0_124_2800)">
<path d="M129.111 47.6358C128.003 44.109 125.789 41.0324 122.797 38.861C119.805 36.6896 116.194 35.5386 112.498 35.5783H88.8322L81.6443 13.175C80.5139 9.64851 78.2928 6.57215 75.3012 4.38951C72.3096 2.20687 68.702 1.03075 64.9988 1.03075C61.2956 1.03075 57.6881 2.20687 54.6965 4.38951C51.7049 6.57215 49.4838 9.64851 48.3534 13.175L41.1655 35.5783H17.5001C13.8154 35.5836 10.2266 36.7531 7.24624 38.9199C4.26592 41.0867 2.04657 44.1399 0.905172 47.6433C-0.236225 51.1468 -0.241276 54.9214 0.890738 58.4279C2.02275 61.9345 4.23393 64.9936 7.20843 67.1683L26.4701 81.2517L19.1468 103.931C17.9633 107.449 17.9483 111.255 19.104 114.781C20.2598 118.308 22.5243 121.367 25.5601 123.502C28.5439 125.705 32.1597 126.885 35.8688 126.867C39.578 126.848 43.1818 125.632 46.1434 123.399L64.9988 109.521L83.8597 123.382C86.8381 125.573 90.4344 126.763 94.1317 126.781C97.829 126.799 101.437 125.644 104.436 123.483C107.436 121.321 109.673 118.264 110.825 114.751C111.978 111.238 111.987 107.45 110.851 103.931L103.528 81.2517L122.811 67.1683C125.819 65.0209 128.057 61.9618 129.191 58.4439C130.326 54.9261 130.297 51.1364 129.111 47.6358ZM116.419 58.4204L93.9726 74.8275C93.0506 75.5001 92.3646 76.4467 92.0125 77.5322C91.6604 78.6178 91.6601 79.7868 92.0118 80.8725L100.543 107.252C100.975 108.59 100.971 110.03 100.532 111.366C100.094 112.701 99.2432 113.864 98.1024 114.685C96.9617 115.507 95.5898 115.946 94.1839 115.939C92.7781 115.932 91.4107 115.479 90.2784 114.645L68.2055 98.3954C67.2758 97.7125 66.1524 97.3442 64.9988 97.3442C63.8453 97.3442 62.7219 97.7125 61.7922 98.3954L39.7193 114.645C38.5876 115.49 37.2164 115.952 35.8044 115.965C34.3925 115.978 33.0131 115.541 31.8663 114.717C30.7196 113.893 29.865 112.725 29.4265 111.383C28.988 110.041 28.9884 108.594 29.4276 107.252L37.9859 80.8725C38.3376 79.7868 38.3373 78.6178 37.9852 77.5322C37.6331 76.4467 36.9471 75.5001 36.0251 74.8275L13.5784 58.4204C12.448 57.5927 11.608 56.429 11.1785 55.0954C10.749 53.7618 10.752 52.3265 11.1869 50.9947C11.6218 49.6628 12.4665 48.5025 13.6003 47.6794C14.7341 46.8564 16.099 46.4126 17.5001 46.4117H45.1251C46.2719 46.4116 47.3891 46.0476 48.3158 45.3721C49.2425 44.6965 49.9308 43.7443 50.2818 42.6525L58.6776 16.4846C59.1086 15.1455 59.9533 13.9777 61.0902 13.1493C62.2271 12.3208 63.5975 11.8745 65.0043 11.8745C66.411 11.8745 67.7814 12.3208 68.9183 13.1493C70.0552 13.9777 70.9 15.1455 71.3309 16.4846L79.7268 42.6525C80.0777 43.7443 80.7661 44.6965 81.6927 45.3721C82.6194 46.0476 83.7366 46.4116 84.8834 46.4117H112.508C113.909 46.4126 115.274 46.8564 116.408 47.6794C117.542 48.5025 118.387 49.6628 118.822 50.9947C119.257 52.3265 119.259 53.7618 118.83 55.0954C118.4 56.429 117.561 57.5927 116.43 58.4204H116.419Z" fill="#003049"/>
</g>
<defs>
<clipPath id="clip0_124_2800">
<rect width="130" height="130" fill="white"/>
</clipPath>
</defs>
</svg>
