<svg width="150" height="150" viewBox="0 0 150 150" fill="none" xmlns="http://www.w3.org/2000/svg">
<g clip-path="url(#clip0_24_389)">
<path d="M109.375 11.9783C102.337 12.0878 95.4528 14.0524 89.4172 17.6738C83.3816 21.2951 78.4084 26.445 74.9999 32.6033C71.5914 26.445 66.6183 21.2951 60.5826 17.6738C54.547 14.0524 47.6627 12.0878 40.6249 11.9783C29.4058 12.4658 18.8356 17.3737 11.2236 25.6298C3.61154 33.8859 -0.423518 44.8191 -7.75792e-05 56.0408C-7.75792e-05 84.4596 29.9124 115.497 54.9999 136.541C60.6013 141.248 67.6834 143.828 74.9999 143.828C82.3165 143.828 89.3985 141.248 94.9999 136.541C120.087 115.497 150 84.4596 150 56.0408C150.423 44.8191 146.388 33.8859 138.776 25.6298C131.164 17.3737 120.594 12.4658 109.375 11.9783Z" fill="#EA3C3C"/>
</g>
<defs>
<clipPath id="clip0_24_389">
<rect width="150" height="150" fill="white"/>
</clipPath>
</defs>
</svg>
