<svg width="556" height="150" viewBox="0 0 556 150" fill="none" xmlns="http://www.w3.org/2000/svg">
<rect x="12.5" y="12.5" width="531" height="125" rx="35.5" fill="#F77F00"/>
<rect x="12.5" y="12.5" width="531" height="125" rx="35.5" stroke="#C9C5C5"/>
<path d="M97.003 93.5L86.7402 57.1364H93.8248L100.377 83.8587H100.714L107.71 57.1364H114.155L121.169 83.8764H121.488L128.04 57.1364H135.124L124.862 93.5H118.363L111.083 67.9851H110.799L103.502 93.5H97.003ZM148.699 94.0327C145.964 94.0327 143.603 93.4645 141.614 92.3281C139.637 91.1799 138.116 89.5582 137.051 87.4631C135.986 85.3561 135.453 82.8762 135.453 80.0234C135.453 77.218 135.986 74.7559 137.051 72.6371C138.128 70.5064 139.631 68.8492 141.561 67.6655C143.49 66.4699 145.757 65.8722 148.361 65.8722C150.042 65.8722 151.628 66.1444 153.12 66.6889C154.623 67.2216 155.949 68.0502 157.097 69.1747C158.257 70.2992 159.169 71.7315 159.831 73.4716C160.494 75.1998 160.826 77.2595 160.826 79.6506V81.6214H138.471V77.2891H154.665C154.653 76.058 154.386 74.9631 153.866 74.0043C153.345 73.0336 152.617 72.2701 151.682 71.7138C150.758 71.1574 149.681 70.8793 148.45 70.8793C147.136 70.8793 145.982 71.1989 144.988 71.8381C143.993 72.4654 143.218 73.294 142.662 74.3239C142.117 75.3419 141.839 76.4605 141.827 77.6797V81.4616C141.827 83.0478 142.117 84.4091 142.697 85.5455C143.277 86.67 144.088 87.5341 145.13 88.1378C146.171 88.7296 147.391 89.0256 148.787 89.0256C149.723 89.0256 150.569 88.8954 151.327 88.6349C152.084 88.3627 152.741 87.9661 153.297 87.4453C153.854 86.9245 154.274 86.2794 154.558 85.5099L160.559 86.1847C160.181 87.7708 159.459 89.1558 158.393 90.3395C157.34 91.5114 155.99 92.4228 154.345 93.0739C152.7 93.7131 150.818 94.0327 148.699 94.0327ZM178.337 94.0327C175.603 94.0327 173.241 93.4645 171.253 92.3281C169.276 91.1799 167.755 89.5582 166.69 87.4631C165.624 85.3561 165.092 82.8762 165.092 80.0234C165.092 77.218 165.624 74.7559 166.69 72.6371C167.767 70.5064 169.27 68.8492 171.2 67.6655C173.129 66.4699 175.396 65.8722 178 65.8722C179.681 65.8722 181.267 66.1444 182.759 66.6889C184.262 67.2216 185.588 68.0502 186.736 69.1747C187.896 70.2992 188.807 71.7315 189.47 73.4716C190.133 75.1998 190.464 77.2595 190.464 79.6506V81.6214H168.11V77.2891H184.303C184.291 76.058 184.025 74.9631 183.504 74.0043C182.983 73.0336 182.255 72.2701 181.32 71.7138C180.397 71.1574 179.32 70.8793 178.089 70.8793C176.775 70.8793 175.621 71.1989 174.626 71.8381C173.632 72.4654 172.857 73.294 172.3 74.3239C171.756 75.3419 171.478 76.4605 171.466 77.6797V81.4616C171.466 83.0478 171.756 84.4091 172.336 85.5455C172.916 86.67 173.727 87.5341 174.768 88.1378C175.81 88.7296 177.029 89.0256 178.426 89.0256C179.361 89.0256 180.208 88.8954 180.965 88.6349C181.723 88.3627 182.38 87.9661 182.936 87.4453C183.492 86.9245 183.913 86.2794 184.197 85.5099L190.198 86.1847C189.819 87.7708 189.097 89.1558 188.032 90.3395C186.978 91.5114 185.629 92.4228 183.984 93.0739C182.338 93.7131 180.456 94.0327 178.337 94.0327ZM201.762 84.9418L201.744 77.1825H202.774L212.575 66.2273H220.085L208.029 79.6506H206.698L201.762 84.9418ZM195.902 93.5V57.1364H202.33V93.5H195.902ZM213.019 93.5L204.141 81.0888L208.473 76.5611L220.707 93.5H213.019ZM230.797 57.1364V93.5H224.369V57.1364H230.797ZM241.401 103.727C240.525 103.727 239.714 103.656 238.969 103.514C238.235 103.384 237.649 103.23 237.211 103.053L238.702 98.0455C239.637 98.3177 240.472 98.4479 241.206 98.4361C241.94 98.4242 242.585 98.1934 243.141 97.7436C243.709 97.3056 244.189 96.5717 244.579 95.5419L245.13 94.0682L235.24 66.2273H242.058L248.344 86.8239H248.628L254.931 66.2273H261.767L250.847 96.8026C250.338 98.2467 249.663 99.4837 248.823 100.513C247.983 101.555 246.953 102.348 245.733 102.893C244.526 103.449 243.082 103.727 241.401 103.727ZM278.901 93.5V57.1364H292.537C295.331 57.1364 297.675 57.6217 299.569 58.5923C301.474 59.563 302.913 60.9242 303.883 62.6761C304.866 64.4162 305.357 66.4463 305.357 68.7663C305.357 71.0982 304.86 73.1224 303.866 74.8388C302.883 76.5433 301.433 77.8632 299.515 78.7983C297.598 79.7216 295.242 80.1832 292.449 80.1832H282.736V74.7145H291.561C293.194 74.7145 294.532 74.4896 295.574 74.0398C296.615 73.5781 297.385 72.9093 297.882 72.0334C298.391 71.1456 298.645 70.0566 298.645 68.7663C298.645 67.4761 298.391 66.3752 297.882 65.4638C297.373 64.5405 296.598 63.8421 295.556 63.3686C294.514 62.8833 293.171 62.6406 291.525 62.6406H285.488V93.5H278.901ZM297.687 77.0227L306.689 93.5H299.338L290.496 77.0227H297.687ZM318.985 94.0504C317.256 94.0504 315.7 93.7427 314.315 93.1271C312.942 92.4998 311.853 91.5765 311.048 90.3572C310.255 89.138 309.858 87.6347 309.858 85.8473C309.858 84.3085 310.142 83.036 310.71 82.0298C311.279 81.0237 312.054 80.2188 313.036 79.6151C314.019 79.0114 315.126 78.5556 316.357 78.2479C317.6 77.9283 318.884 77.6974 320.21 77.5554C321.808 77.3897 323.104 77.2417 324.098 77.1115C325.093 76.9695 325.815 76.7564 326.264 76.4723C326.726 76.1764 326.957 75.7206 326.957 75.1051V74.9986C326.957 73.661 326.56 72.6252 325.767 71.8913C324.974 71.1574 323.832 70.7905 322.34 70.7905C320.766 70.7905 319.517 71.1338 318.594 71.8203C317.682 72.5069 317.067 73.3177 316.747 74.2528L310.746 73.4006C311.219 71.7434 312.001 70.3584 313.09 69.2457C314.179 68.1212 315.51 67.2808 317.085 66.7244C318.659 66.1562 320.399 65.8722 322.305 65.8722C323.619 65.8722 324.927 66.026 326.229 66.3338C327.531 66.6416 328.721 67.1506 329.798 67.8608C330.875 68.5592 331.739 69.5121 332.39 70.7195C333.053 71.9268 333.384 73.4361 333.384 75.2472V93.5H327.205V89.7536H326.992C326.602 90.5111 326.051 91.2214 325.341 91.8842C324.643 92.5353 323.761 93.062 322.695 93.4645C321.642 93.8551 320.405 94.0504 318.985 94.0504ZM320.654 89.3274C321.944 89.3274 323.062 89.0729 324.009 88.5639C324.956 88.0431 325.684 87.3565 326.193 86.5043C326.714 85.652 326.975 84.7228 326.975 83.7166V80.5028C326.773 80.6686 326.43 80.8224 325.945 80.9645C325.471 81.1065 324.939 81.2308 324.347 81.3374C323.755 81.4439 323.169 81.5386 322.589 81.6214C322.009 81.7043 321.506 81.7753 321.08 81.8345C320.121 81.9647 319.263 82.1778 318.505 82.4737C317.748 82.7696 317.15 83.1839 316.712 83.7166C316.274 84.2375 316.055 84.9122 316.055 85.7408C316.055 86.9245 316.487 87.8182 317.351 88.4219C318.215 89.0256 319.316 89.3274 320.654 89.3274ZM346.275 77.5199V93.5H339.847V66.2273H345.991V70.8615H346.311C346.938 69.3345 347.938 68.1212 349.311 67.2216C350.696 66.322 352.407 65.8722 354.443 65.8722C356.325 65.8722 357.964 66.2746 359.361 67.0795C360.77 67.8845 361.859 69.0504 362.628 70.5774C363.409 72.1044 363.794 73.9569 363.782 76.1349V93.5H357.355V77.1293C357.355 75.3063 356.881 73.88 355.934 72.8501C354.999 71.8203 353.703 71.3054 352.046 71.3054C350.921 71.3054 349.921 71.554 349.045 72.0511C348.181 72.5365 347.5 73.2408 347.003 74.1641C346.518 75.0874 346.275 76.206 346.275 77.5199ZM376.176 84.9418L376.158 77.1825H377.188L386.989 66.2273H394.499L382.443 79.6506H381.112L376.176 84.9418ZM370.316 93.5V57.1364H376.744V93.5H370.316ZM387.433 93.5L378.555 81.0888L382.887 76.5611L395.121 93.5H387.433ZM398.783 93.5V66.2273H405.211V93.5H398.783ZM402.015 62.3565C400.997 62.3565 400.121 62.0192 399.387 61.3445C398.653 60.6579 398.286 59.8352 398.286 58.8764C398.286 57.9058 398.653 57.0831 399.387 56.4084C400.121 55.7218 400.997 55.3786 402.015 55.3786C403.044 55.3786 403.92 55.7218 404.642 56.4084C405.376 57.0831 405.743 57.9058 405.743 58.8764C405.743 59.8352 405.376 60.6579 404.642 61.3445C403.92 62.0192 403.044 62.3565 402.015 62.3565ZM418.248 77.5199V93.5H411.82V66.2273H417.964V70.8615H418.283C418.911 69.3345 419.911 68.1212 421.284 67.2216C422.669 66.322 424.379 65.8722 426.415 65.8722C428.297 65.8722 429.937 66.2746 431.334 67.0795C432.742 67.8845 433.831 69.0504 434.601 70.5774C435.382 72.1044 435.767 73.9569 435.755 76.1349V93.5H429.327V77.1293C429.327 75.3063 428.854 73.88 427.907 72.8501C426.972 71.8203 425.675 71.3054 424.018 71.3054C422.894 71.3054 421.894 71.554 421.018 72.0511C420.153 72.5365 419.473 73.2408 418.976 74.1641C418.49 75.0874 418.248 76.206 418.248 77.5199ZM454.15 104.295C451.841 104.295 449.859 103.982 448.202 103.354C446.544 102.739 445.213 101.91 444.206 100.869C443.2 99.8269 442.502 98.6728 442.111 97.4062L447.9 96.0036C448.16 96.5362 448.539 97.063 449.036 97.5838C449.533 98.1165 450.202 98.5545 451.042 98.8977C451.895 99.2528 452.966 99.4304 454.256 99.4304C456.079 99.4304 457.588 98.9865 458.784 98.0987C459.979 97.2228 460.577 95.7786 460.577 93.7663V88.5994H460.258C459.926 89.2623 459.441 89.9429 458.802 90.6413C458.174 91.3397 457.34 91.9257 456.298 92.3991C455.268 92.8726 453.972 93.1094 452.41 93.1094C450.314 93.1094 448.415 92.6181 446.71 91.6357C445.017 90.6413 443.668 89.1617 442.662 87.1967C441.667 85.2199 441.17 82.746 441.17 79.7749C441.17 76.7801 441.667 74.2528 442.662 72.1932C443.668 70.1217 445.023 68.5533 446.728 67.4879C448.432 66.4107 450.332 65.8722 452.427 65.8722C454.025 65.8722 455.339 66.1444 456.369 66.6889C457.411 67.2216 458.239 67.8667 458.855 68.6243C459.47 69.37 459.938 70.0743 460.258 70.7372H460.613V66.2273H466.952V93.9439C466.952 96.2758 466.395 98.2053 465.282 99.7322C464.17 101.259 462.649 102.402 460.719 103.159C458.79 103.917 456.6 104.295 454.15 104.295ZM454.203 88.0668C455.564 88.0668 456.724 87.7353 457.683 87.0724C458.642 86.4096 459.37 85.4567 459.867 84.2138C460.364 82.9709 460.613 81.4794 460.613 79.7393C460.613 78.023 460.364 76.5196 459.867 75.2294C459.382 73.9392 458.66 72.9389 457.701 72.2287C456.754 71.5066 455.588 71.1456 454.203 71.1456C452.771 71.1456 451.575 71.5185 450.616 72.2642C449.657 73.0099 448.935 74.0339 448.45 75.3359C447.965 76.6262 447.722 78.094 447.722 79.7393C447.722 81.4084 447.965 82.8703 448.45 84.125C448.947 85.3679 449.675 86.3385 450.634 87.0369C451.605 87.7235 452.794 88.0668 454.203 88.0668Z" fill="white"/>
</svg>
