<svg width="40" height="40" viewBox="0 0 40 40" fill="none" xmlns="http://www.w3.org/2000/svg">
<path d="M5 15.3334C5 14.3906 5 13.9192 5.29289 13.6263C5.58579 13.3334 6.05719 13.3334 7 13.3334H33C33.9428 13.3334 34.4142 13.3334 34.7071 13.6263C35 13.9192 35 14.3906 35 15.3334V19.6667C35 20.6095 35 21.0809 34.7071 21.3738C34.4142 21.6667 33.9428 21.6667 33 21.6667H32C31.0572 21.6667 30.5858 21.6667 30.2929 21.9596C30 22.2525 30 22.7239 30 23.6667V31.3334C30 32.2762 30 32.7476 29.7071 33.0405C29.4142 33.3334 28.9428 33.3334 28 33.3334H12C11.0572 33.3334 10.5858 33.3334 10.2929 33.0405C10 32.7476 10 32.2762 10 31.3334V23.6667C10 22.7239 10 22.2525 9.70711 21.9596C9.41421 21.6667 8.94281 21.6667 8 21.6667H7C6.05719 21.6667 5.58579 21.6667 5.29289 21.3738C5 21.0809 5 20.6095 5 19.6667V15.3334Z" stroke="#F77F00" stroke-width="2"/>
<path d="M8.33325 21.6666H31.6666" stroke="#F77F00" stroke-width="2" stroke-linecap="round"/>
<path d="M20 11.6666L20 33.3333" stroke="#F77F00" stroke-width="2" stroke-linecap="round"/>
<path d="M19.9999 11.6667L17.6694 9.33618C16.4619 8.12865 14.9898 7.21886 13.3698 6.67884L10.9657 5.87748C9.67064 5.4458 8.33325 6.40974 8.33325 7.77485V10.2251C8.33325 11.086 8.88411 11.8503 9.7008 12.1225L13.3333 13.3333" stroke="#F77F00" stroke-width="2" stroke-linecap="round"/>
<path d="M20.0001 11.6667L22.3306 9.33618C23.5381 8.12865 25.0102 7.21886 26.6302 6.67884L29.0343 5.87748C30.3294 5.4458 31.6667 6.40974 31.6667 7.77485V10.2251C31.6667 11.086 31.1159 11.8503 30.2992 12.1225L26.6667 13.3333" stroke="#F77F00" stroke-width="2" stroke-linecap="round"/>
</svg>
