<svg width="134" height="86" viewBox="0 0 134 86" fill="none" xmlns="http://www.w3.org/2000/svg">
<path d="M102.123 16.0941C104.68 12.9931 104.218 8.42149 101.095 5.88664C97.9779 3.35549 93.3836 3.80985 90.8305 6.90632L38.7139 70.1146L12.8551 49.5866C9.70984 47.0897 5.12082 47.594 2.60203 50.7182C0.0795178 53.8471 0.592555 58.4133 3.74243 60.9139L30.3701 82.0522C36.1862 86.6693 44.663 85.783 49.382 80.0598L102.123 16.0941Z" fill="#003049" stroke="#003049" stroke-width="2" stroke-linecap="round"/>
<path d="M131.348 12.8441C133.905 9.74305 133.442 5.17148 130.32 2.63662C127.202 0.105476 122.608 0.559833 120.055 3.6563L67.9386 66.8646L42.0797 46.3366C38.9344 43.8397 34.3454 44.3439 31.8266 47.4682C29.3041 50.5971 29.8172 55.1633 32.967 57.6638L59.5947 78.8022C65.4108 83.4193 73.8877 82.533 78.6066 76.8097L131.348 12.8441Z" fill="#003049" stroke="#003049" stroke-width="2" stroke-linecap="round"/>
</svg>
