<svg width="130" height="130" viewBox="0 0 130 130" fill="none" xmlns="http://www.w3.org/2000/svg">
<g clip-path="url(#clip0_24_287)">
<path d="M128.456 12.3765C127.428 11.3518 126.035 10.7764 124.583 10.7764C123.131 10.7764 121.739 11.3518 120.71 12.3765L94.9054 38.1815L93.1721 36.486C88.6022 32.0225 82.6036 29.3149 76.2332 28.8402C69.8628 28.3656 63.5292 30.1544 58.3483 33.8915C50.8708 39.5302 42.5591 43.9675 33.7133 47.0431L22.4791 50.3364C18.8286 51.408 15.4425 53.2315 12.5386 55.6895C9.6346 58.1476 7.27694 61.1859 5.61706 64.6093C3.98451 67.9863 3.07523 71.667 2.94744 75.4158C2.81965 79.1645 3.47618 82.8986 4.87498 86.3789C10.1767 99.3939 19.2655 110.516 30.9634 118.305C42.6613 126.093 56.4288 130.188 70.4816 130.059H75.4866C76.6065 130.058 77.6992 129.714 78.6175 129.073C88.1519 122.849 96.3004 114.727 102.554 105.212C108.808 95.6973 113.032 84.9952 114.963 73.7743C115.635 69.4838 115.271 65.0948 113.902 60.9734C112.533 56.852 110.198 53.1177 107.093 50.0819L102.76 45.8352L128.472 20.1223C129.495 19.0917 130.068 17.6979 130.064 16.246C130.061 14.7942 129.483 13.4028 128.456 12.3765ZM73.71 119.085H70.46C62.4565 119.096 54.5285 117.537 47.125 114.497L47.1846 114.464C56.6577 109.711 64.7675 102.628 70.7525 93.881L73.5583 89.7589C74.3757 88.5593 74.6831 87.0842 74.4129 85.658C74.1427 84.2318 73.317 82.9713 72.1175 82.1539C70.9179 81.3365 69.4428 81.0291 68.0166 81.2993C66.5904 81.5695 65.3299 82.3952 64.5125 83.5947L61.7066 87.7168C56.7623 94.9295 50.0676 100.769 42.25 104.687L35.4737 108.1C30.0523 104.289 25.3207 99.581 21.4825 94.1789C30.3603 91.1921 38.4599 86.2624 45.1912 79.7489C46.2299 78.7332 46.8225 77.3466 46.8388 75.8939C46.855 74.4413 46.2936 73.0417 45.2779 72.0031C44.2622 70.9644 42.8755 70.3718 41.4229 70.3555C39.9703 70.3393 38.5707 70.9007 37.5321 71.9164C31.4702 77.79 24.0718 82.1026 15.9737 84.4831C15.6433 83.7518 15.2858 83.0368 14.9879 82.2839C14.149 80.2237 13.7563 78.0091 13.8356 75.786C13.915 73.563 14.4646 71.382 15.4483 69.3868C16.4442 67.3382 17.8565 65.5199 19.595 64.0481C21.3336 62.5763 23.3601 61.4834 25.545 60.8393L36.7737 57.546C43.2897 55.4528 49.5226 52.5637 55.3312 48.9444L98.2041 90.7176C92.5077 102.057 84.0927 111.81 73.71 119.106V119.085ZM104.152 72.0518C103.738 74.586 103.179 77.0944 102.478 79.5647L64.7183 42.791C67.4884 40.8 70.8132 39.7278 74.2246 39.7252C78.4445 39.7199 82.498 41.3712 85.5129 44.3239L99.4283 57.9143C101.286 59.7279 102.684 61.9589 103.505 64.4217C104.327 66.8844 104.549 69.5078 104.152 72.0735V72.0518Z" fill="#F77F00"/>
</g>
<defs>
<clipPath id="clip0_24_287">
<rect width="130" height="130" fill="white"/>
</clipPath>
</defs>
</svg>
