<svg width="200" height="258" viewBox="0 0 200 258" fill="none" xmlns="http://www.w3.org/2000/svg">
<path d="M100 219.583C76.3218 219.583 53.6121 210.183 36.8613 193.448C20.1104 176.712 10.6888 154.012 10.6667 130.333C10.6654 128.718 11.2895 127.165 12.408 126C13.5266 124.835 15.0528 124.148 16.6667 124.083H183.333C184.991 124.083 186.581 124.742 187.753 125.914C188.925 127.086 189.583 128.676 189.583 130.333C189.572 142.079 187.245 153.707 182.736 164.552C178.226 175.397 171.621 185.246 163.3 193.536C154.98 201.826 145.106 208.394 134.244 212.863C123.382 217.333 111.745 219.616 100 219.583ZM23.4167 136.25C24.9728 155.493 33.7158 173.444 47.9062 186.533C62.0967 199.623 80.6946 206.89 100 206.89C119.305 206.89 137.903 199.623 152.094 186.533C166.284 173.444 175.027 155.493 176.583 136.25H23.4167Z" fill="white"/>
<path d="M100 219.583C98.3424 219.583 96.7527 218.925 95.5806 217.753C94.4085 216.581 93.75 214.991 93.75 213.333V130C93.7511 128.765 94.1182 127.557 94.8051 126.531C95.4919 125.504 96.4676 124.704 97.609 124.231C98.7503 123.758 100.006 123.635 101.218 123.875C102.429 124.116 103.543 124.71 104.417 125.583L162.75 183.917C163.854 185.101 164.455 186.669 164.426 188.288C164.398 189.907 163.742 191.452 162.597 192.597C161.452 193.742 159.907 194.398 158.288 194.426C156.669 194.455 155.101 193.854 153.917 192.75L105.917 144.75V212.667C106.009 213.514 105.926 214.372 105.674 215.186C105.422 216.001 105.007 216.755 104.452 217.403C103.898 218.051 103.217 218.579 102.452 218.954C101.686 219.329 100.852 219.543 100 219.583Z" fill="white"/>
<path d="M41.6667 195.25C40.8435 195.269 40.0254 195.115 39.2649 194.799C38.5044 194.484 37.8181 194.013 37.25 193.417C36.6604 192.842 36.1918 192.155 35.8718 191.397C35.5518 190.638 35.387 189.823 35.387 189C35.387 188.177 35.5518 187.362 35.8718 186.603C36.1918 185.845 36.6604 185.158 37.25 184.583L95.5834 126.25C96.1556 125.636 96.8456 125.143 97.6122 124.802C98.3789 124.46 99.2065 124.277 100.046 124.262C100.885 124.247 101.718 124.401 102.497 124.716C103.275 125.03 103.982 125.498 104.575 126.091C105.169 126.685 105.637 127.392 105.951 128.17C106.265 128.948 106.42 129.782 106.405 130.621C106.39 131.46 106.206 132.288 105.865 133.055C105.523 133.821 105.031 134.511 104.417 135.083L46.0834 193.417C45.5063 194.001 44.8184 194.464 44.06 194.779C43.3016 195.094 42.4879 195.254 41.6667 195.25V195.25Z" fill="white"/>
<path d="M100 38.4167C123.678 38.4167 146.388 47.8171 163.139 64.5523C179.89 81.2876 189.311 103.988 189.333 127.667C189.335 129.282 188.711 130.835 187.592 132C186.473 133.165 184.947 133.852 183.333 133.917L16.6666 133.917C15.009 133.917 13.4193 133.258 12.2472 132.086C11.0751 130.914 10.4166 129.324 10.4166 127.667C10.4275 115.921 12.7546 104.293 17.2645 93.448C21.7745 82.6029 28.3788 72.7536 36.6996 64.4638C45.0204 56.174 54.8942 49.6064 65.7561 45.1369C76.6179 40.6675 88.2545 38.3838 100 38.4167ZM176.583 121.75C175.027 102.507 166.284 84.5558 152.094 71.4666C137.903 58.3773 119.305 51.1098 100 51.1098C80.6946 51.1098 62.0967 58.3773 47.9062 71.4666C33.7157 84.5558 24.9727 102.507 23.4166 121.75L176.583 121.75Z" fill="white"/>
<path d="M100 38.4167C101.658 38.4167 103.247 39.0752 104.419 40.2473C105.592 41.4194 106.25 43.0091 106.25 44.6667L106.25 128C106.249 129.235 105.882 130.443 105.195 131.469C104.508 132.496 103.532 133.296 102.391 133.769C101.25 134.242 99.9939 134.365 98.7822 134.125C97.5705 133.884 96.4574 133.29 95.5833 132.417L37.25 74.0833C36.146 72.8985 35.545 71.3315 35.5736 69.7123C35.6021 68.0931 36.2581 66.5483 37.4032 65.4032C38.5483 64.258 40.0931 63.6021 41.7123 63.5735C43.3315 63.545 44.8986 64.146 46.0833 65.25L94.0833 113.25L94.0833 45.3333C93.9914 44.4857 94.0739 43.6283 94.3257 42.8137C94.5775 41.9992 94.9933 41.2448 95.5475 40.5969C96.1017 39.949 96.7826 39.4214 97.5484 39.0464C98.3141 38.6715 99.1484 38.4572 100 38.4167Z" fill="white"/>
<path d="M158.333 62.75C159.157 62.7314 159.975 62.8849 160.735 63.2006C161.496 63.5163 162.182 63.9872 162.75 64.5833C163.34 65.1579 163.808 65.8447 164.128 66.6032C164.448 67.3618 164.613 68.1767 164.613 69C164.613 69.8233 164.448 70.6382 164.128 71.3968C163.808 72.1553 163.34 72.8421 162.75 73.4167L104.417 131.75C103.844 132.364 103.154 132.857 102.388 133.198C101.621 133.54 100.793 133.723 99.9543 133.738C99.1151 133.753 98.2815 133.599 97.5033 133.284C96.7251 132.97 96.0181 132.502 95.4246 131.909C94.8311 131.315 94.3633 130.608 94.0489 129.83C93.7346 129.052 93.5802 128.218 93.595 127.379C93.6098 126.54 93.7935 125.712 94.1351 124.945C94.4767 124.179 94.9692 123.489 95.5833 122.917L153.917 64.5833C154.494 63.9991 155.182 63.5359 155.94 63.2211C156.698 62.9063 157.512 62.7461 158.333 62.75V62.75Z" fill="white"/>
</svg>
