<svg width="130" height="130" viewBox="0 0 130 130" fill="none" xmlns="http://www.w3.org/2000/svg">
<g clip-path="url(#clip0_124_2802)">
<path d="M128.456 12.3765C127.428 11.3518 126.035 10.7764 124.583 10.7764C123.132 10.7764 121.739 11.3518 120.71 12.3765L94.9055 38.1815L93.1721 36.486C88.6022 32.0225 82.6037 29.3149 76.2333 28.8402C69.8629 28.3656 63.5293 30.1544 58.3484 33.8915C50.8709 39.5302 42.5592 43.9675 33.7134 47.0431L22.4792 50.3364C18.8286 51.408 15.4426 53.2315 12.5386 55.6895C9.63468 58.1476 7.27702 61.1859 5.61714 64.6093C3.98459 67.9863 3.07531 71.667 2.94752 75.4158C2.81974 79.1645 3.47626 82.8986 4.87506 86.3789C10.1768 99.3939 19.2656 110.516 30.9635 118.305C42.6614 126.093 56.4289 130.188 70.4817 130.059H75.4867C76.6066 130.058 77.6993 129.714 78.6176 129.073C88.152 122.849 96.3005 114.727 102.554 105.212C108.808 95.6973 113.032 84.9952 114.963 73.7743C115.635 69.4838 115.271 65.0948 113.902 60.9734C112.533 56.852 110.198 53.1177 107.093 50.0819L102.76 45.8352L128.473 20.1223C129.495 19.0917 130.068 17.6979 130.065 16.246C130.062 14.7942 129.483 13.4028 128.456 12.3765ZM73.7101 119.085H70.4601C62.4566 119.096 54.5286 117.537 47.1251 114.497L47.1846 114.464C56.6578 109.711 64.7676 102.628 70.7526 93.881L73.5584 89.7589C74.3758 88.5593 74.6832 87.0842 74.413 85.658C74.1428 84.2318 73.3171 82.9713 72.1176 82.1539C70.918 81.3365 69.4429 81.0291 68.0167 81.2993C66.5904 81.5695 65.33 82.3952 64.5126 83.5947L61.7067 87.7168C56.7624 94.9295 50.0677 100.769 42.2501 104.687L35.4738 108.1C30.0524 104.289 25.3208 99.581 21.4826 94.1789C30.3604 91.1921 38.46 86.2624 45.1913 79.7489C46.23 78.7332 46.8226 77.3466 46.8389 75.8939C46.8551 74.4413 46.2936 73.0417 45.278 72.0031C44.2623 70.9644 42.8756 70.3718 41.423 70.3555C39.9704 70.3393 38.5708 70.9007 37.5321 71.9164C31.4703 77.79 24.0719 82.1026 15.9738 84.4831C15.6434 83.7518 15.2859 83.0368 14.988 82.2839C14.1491 80.2237 13.7563 78.0091 13.8357 75.786C13.9151 73.563 14.4647 71.382 15.4484 69.3868C16.4443 67.3382 17.8566 65.5199 19.5951 64.0481C21.3337 62.5763 23.3602 61.4834 25.5451 60.8393L36.7738 57.546C43.2898 55.4528 49.5227 52.5637 55.3313 48.9444L98.2042 90.7176C92.5078 102.057 84.0928 111.81 73.7101 119.106V119.085ZM104.152 72.0518C103.738 74.586 103.179 77.0944 102.478 79.5647L64.7184 42.791C67.4885 40.8 70.8132 39.7278 74.2246 39.7252C78.4446 39.7199 82.4981 41.3712 85.513 44.3239L99.4284 57.9143C101.286 59.7279 102.684 61.9589 103.506 64.4217C104.327 66.8844 104.549 69.5078 104.152 72.0735V72.0518Z" fill="#003049"/>
</g>
<defs>
<clipPath id="clip0_124_2802">
<rect width="130" height="130" fill="white"/>
</clipPath>
</defs>
</svg>
