<svg width="330" height="330" viewBox="0 0 330 330" fill="none" xmlns="http://www.w3.org/2000/svg">
<ellipse cx="165" cy="165" rx="165" ry="165" fill="url(#paint0_radial_22_253)"/>
<path d="M165 278.75C142.502 278.75 120.51 272.079 101.804 259.58C83.0978 247.081 68.5182 229.315 59.9087 208.53C51.2992 187.745 49.0466 164.874 53.4357 142.808C57.8247 120.743 68.6584 100.475 84.5666 84.5666C100.475 68.6584 120.743 57.8247 142.808 53.4357C164.874 49.0466 187.745 51.2992 208.53 59.9087C229.315 68.5182 247.081 83.0978 259.58 101.804C272.079 120.51 278.75 142.502 278.75 165C278.719 195.159 266.725 224.074 245.399 245.399C224.074 266.725 195.159 278.719 165 278.75ZM165 68.75C145.964 68.75 127.355 74.395 111.526 84.971C95.6981 95.5471 83.3615 110.579 76.0766 128.167C68.7917 145.754 66.8856 165.107 70.5994 183.777C74.3132 202.448 83.4802 219.598 96.941 233.059C110.402 246.52 127.552 255.687 146.223 259.401C164.893 263.114 184.246 261.208 201.833 253.923C219.421 246.638 234.453 234.302 245.029 218.474C255.605 202.645 261.25 184.036 261.25 165C261.219 139.482 251.069 115.019 233.025 96.9751C214.981 78.9314 190.518 68.7809 165 68.75Z" fill="#2A9D8F"/>
<path d="M200 227.767C198.572 227.764 197.168 227.403 195.917 226.717L165 210.383L133.967 226.717C132.518 227.472 130.887 227.807 129.258 227.683C127.629 227.559 126.068 226.982 124.75 226.017C123.452 225.045 122.442 223.74 121.826 222.241C121.21 220.741 121.011 219.103 121.25 217.5L127.2 182.5L102.117 158.583C100.956 157.435 100.135 155.989 99.7436 154.404C99.3525 152.819 99.4066 151.156 99.9 149.6C100.382 148.088 101.267 146.735 102.459 145.687C103.651 144.639 105.105 143.935 106.667 143.65L141.667 138.517L157.183 106.667C157.99 105.313 159.135 104.192 160.505 103.414C161.875 102.635 163.424 102.226 165 102.226C166.576 102.226 168.125 102.635 169.495 103.414C170.865 104.192 172.01 105.313 172.817 106.667L188.333 138.517L223.333 143.65C224.958 143.875 226.487 144.552 227.745 145.604C229.003 146.656 229.941 148.041 230.45 149.6C230.943 151.156 230.997 152.819 230.606 154.404C230.215 155.989 229.394 157.435 228.233 158.583L203.15 182.967L209.1 217.967C209.339 219.57 209.14 221.208 208.524 222.708C207.908 224.207 206.898 225.512 205.6 226.483C203.938 227.547 201.959 228 200 227.767ZM165 191.717C166.428 191.719 167.832 192.08 169.083 192.767L188.45 202.917L184.717 181.45C184.471 180.036 184.576 178.584 185.024 177.221C185.472 175.858 186.247 174.626 187.283 173.633L202.917 158.35L181.333 155.2C179.915 155.016 178.566 154.482 177.405 153.647C176.244 152.812 175.309 151.702 174.683 150.417L165 130.817L155.317 150.417C154.691 151.702 153.756 152.812 152.595 153.647C151.434 154.482 150.085 155.016 148.667 155.2L127.083 158.35L142.717 173.633C143.753 174.626 144.528 175.858 144.976 177.221C145.424 178.584 145.529 180.036 145.283 181.45L141.667 202.917L161.033 192.767C162.25 192.099 163.612 191.738 165 191.717Z" fill="#2A9D8F"/>
<defs>
<radialGradient id="paint0_radial_22_253" cx="0" cy="0" r="1" gradientUnits="userSpaceOnUse" gradientTransform="translate(165 165) rotate(90) scale(165 165)">
<stop stop-color="white"/>
<stop offset="1" stop-color="#2A9D8F"/>
</radialGradient>
</defs>
</svg>
