<svg width="70" height="70" viewBox="0 0 70 70" fill="none" xmlns="http://www.w3.org/2000/svg">
<path d="M31.2667 61.0167C25.6423 61.0167 20.1442 59.3488 15.4676 56.2241C10.7911 53.0993 7.14622 48.658 4.99385 43.4617C2.84148 38.2655 2.27833 32.5476 3.37559 27.0313C4.47286 21.515 7.18127 16.4479 11.1583 12.4708C15.1354 8.49376 20.2025 5.78535 25.7188 4.68809C31.2351 3.59082 36.953 4.15398 42.1492 6.30634C47.3455 8.45871 51.7868 12.1036 54.9116 16.7801C58.0363 21.4567 59.7042 26.9548 59.7042 32.5792C59.6888 40.1165 56.6877 47.3408 51.358 52.6705C46.0283 58.0002 38.804 61.0013 31.2667 61.0167ZM31.2667 8.51667C26.5113 8.53396 21.8677 9.95989 17.9222 12.6144C13.9767 15.2689 10.9061 19.033 9.09831 23.4313C7.29048 27.8297 6.82643 32.665 7.76475 37.3269C8.70306 41.9888 11.0017 46.2682 14.3703 49.6246C17.739 52.9811 22.0266 55.2641 26.6919 56.1855C31.3572 57.1069 36.1908 56.6253 40.5826 54.8015C44.9743 52.9777 48.7272 49.8936 51.3674 45.9384C54.0076 41.9833 55.4166 37.3345 55.4167 32.5792C55.4129 29.4129 54.7849 26.2785 53.5689 23.3552C52.3528 20.4318 50.5724 17.7768 48.3295 15.542C46.0865 13.3072 43.4251 11.5364 40.4973 10.331C37.5696 9.12552 34.4329 8.509 31.2667 8.51667Z" fill="#2A9D8F"/>
<path d="M38.7333 65.8583C31.5507 65.8841 24.6233 63.1965 19.3375 58.3333C18.9348 57.9195 18.7095 57.3649 18.7095 56.7875C18.7095 56.2101 18.9348 55.6555 19.3375 55.2417C19.5308 55.029 19.7642 54.8565 20.0243 54.734C20.2843 54.6116 20.566 54.5416 20.8531 54.528C21.1402 54.5145 21.4272 54.5576 21.6976 54.6551C21.9681 54.7525 22.2166 54.9023 22.4292 55.0958C25.0007 57.4769 28.0613 59.2675 31.3969 60.3424C34.7326 61.4173 38.2628 61.7507 41.7407 61.3191C45.2186 60.8875 48.5602 59.7014 51.532 57.8438C54.5037 55.9862 57.0338 53.5018 58.9454 50.5644C60.8569 47.6271 62.1038 44.3076 62.5987 40.8382C63.0937 37.3687 62.8248 33.833 61.8109 30.4783C60.797 27.1236 59.0626 24.0309 56.7289 21.4163C54.3951 18.8018 51.5185 16.7286 48.3 15.3417C48.0288 15.231 47.783 15.0663 47.5776 14.8576C47.3721 14.6488 47.2113 14.4005 47.1049 14.1276C46.9984 13.8548 46.9487 13.5631 46.9586 13.2704C46.9685 12.9777 47.0379 12.69 47.1625 12.425C47.2765 12.1565 47.443 11.9135 47.6523 11.7103C47.8616 11.5071 48.1094 11.3479 48.3812 11.2419C48.653 11.1359 48.9432 11.0853 49.2348 11.0932C49.5264 11.101 49.8135 11.1671 50.0792 11.2875C56.0694 13.8946 60.9794 18.4847 63.9835 24.286C66.9876 30.0874 67.9026 36.7462 66.5746 43.1428C65.2467 49.5395 61.7569 55.2838 56.6918 59.4101C51.6268 63.5363 45.2955 65.7927 38.7625 65.8L38.7333 65.8583Z" fill="#2A9D8F"/>
<path d="M22.5167 48.2417C22.202 48.2339 21.8926 48.1582 21.6098 48.0198C21.3269 47.8815 21.0773 47.6837 20.8779 47.44C20.6786 47.1964 20.5341 46.9125 20.4545 46.6079C20.3749 46.3033 20.362 45.9851 20.4167 45.675L21.9042 37.0708L15.6334 30.9458C15.3374 30.6627 15.1281 30.3011 15.03 29.9034C14.9319 29.5057 14.9489 29.0883 15.0792 28.7C15.2043 28.3142 15.4342 27.9708 15.7433 27.7081C16.0523 27.4454 16.4283 27.2738 16.8292 27.2125L25.5792 25.9583L29.4584 18.1125C29.6639 17.7745 29.953 17.4951 30.2978 17.3012C30.6426 17.1073 31.0315 17.0055 31.4271 17.0055C31.8227 17.0055 32.2116 17.1073 32.5564 17.3012C32.9012 17.4951 33.1903 17.7745 33.3959 18.1125L37.1292 25.9583L45.8792 27.2125C46.2801 27.2738 46.6561 27.4454 46.9651 27.7081C47.2742 27.9708 47.5041 28.3142 47.6292 28.7C47.7595 29.0883 47.7765 29.5057 47.6784 29.9034C47.5803 30.3011 47.371 30.6627 47.075 30.9458L40.8334 37.0708L42.3209 45.675C42.3896 46.0805 42.3442 46.4972 42.1897 46.8783C42.0351 47.2595 41.7776 47.5902 41.4459 47.8333C41.1136 48.0701 40.7218 48.2092 40.3146 48.235C39.9074 48.2608 39.5012 48.1722 39.1417 47.9792L31.3834 43.925L23.5375 47.9792C23.2246 48.1508 22.8736 48.2411 22.5167 48.2417ZM31.2667 39.2583C31.6236 39.2589 31.9746 39.3492 32.2875 39.5208L37.1292 42.0583L36.225 36.6625C36.1673 36.3161 36.1928 35.9609 36.2993 35.6262C36.4057 35.2915 36.5902 34.9869 36.8375 34.7375L40.8334 30.9167L35.4084 30.1292C35.0571 30.0737 34.7237 29.9366 34.435 29.7289C34.1462 29.5212 33.9102 29.2487 33.7459 28.9333L31.325 24.0042L28.875 28.9333C28.7145 29.2517 28.4796 29.5266 28.1902 29.7347C27.9007 29.9429 27.5654 30.0782 27.2125 30.1292L21.7875 30.9167L25.725 34.7375C25.9764 34.9841 26.1636 35.2884 26.2704 35.6239C26.3772 35.9595 26.4002 36.316 26.3375 36.6625L25.4334 42.0583L30.275 39.5208C30.5763 39.3466 30.9187 39.256 31.2667 39.2583Z" fill="#2A9D8F"/>
</svg>
