<svg width="120" height="120" viewBox="0 0 120 120" fill="none" xmlns="http://www.w3.org/2000/svg">
<path d="M60.0004 72C55.3088 72.0099 50.7197 70.627 46.8146 68.0267C42.9096 65.4263 39.8641 61.7254 38.0641 57.3927C36.2641 53.0601 35.7906 48.2907 36.7035 43.6887C37.6163 39.0867 39.8746 34.8591 43.1921 31.5416C46.5096 28.2241 50.7371 25.9659 55.3391 25.053C59.9411 24.1401 64.7105 24.6137 69.0432 26.4137C73.3758 28.2137 77.0767 31.2591 79.6771 35.1642C82.2775 39.0693 83.6603 43.6583 83.6504 48.35C83.6504 54.6224 81.1588 60.6378 76.7235 65.0731C72.2883 69.5083 66.2728 72 60.0004 72ZM60.0004 32C56.7943 31.9901 53.6573 32.9318 50.9866 34.7058C48.316 36.4799 46.2318 39.0065 44.998 41.9658C43.7642 44.9251 43.4362 48.1839 44.0557 51.3297C44.6751 54.4755 46.214 57.3667 48.4776 59.6373C50.7412 61.9079 53.6277 63.4558 56.7715 64.085C59.9154 64.7141 63.1752 64.3962 66.1383 63.1716C69.1014 61.9469 71.6344 59.8706 73.4167 57.2054C75.199 54.5403 76.1504 51.4062 76.1504 48.2C76.111 43.9382 74.3937 39.8636 71.3706 36.8593C68.3476 33.855 64.2624 32.163 60.0004 32.15V32Z" fill="#003049"/>
<path d="M95 96.4C94.1599 96.3971 93.3457 96.1084 92.6914 95.5814C92.0371 95.0543 91.5817 94.3203 91.4 93.5C89.9077 87.3616 86.394 81.9036 81.4242 78.0039C76.4543 74.1042 70.3172 71.9895 64 72H56C49.6914 72.0007 43.5659 74.1205 38.6063 78.0193C33.6466 81.9181 30.1404 87.3699 28.65 93.5C28.5319 93.9793 28.3204 94.4306 28.0278 94.8283C27.7352 95.2259 27.3671 95.562 26.9446 95.8173C26.5221 96.0727 26.0534 96.2423 25.5653 96.3166C25.0773 96.3908 24.5794 96.3682 24.1 96.25C23.6207 96.1318 23.1694 95.9203 22.7718 95.6277C22.3741 95.3351 22.0381 94.967 21.7827 94.5445C21.5273 94.122 21.3577 93.6533 21.2835 93.1653C21.2092 92.6772 21.2319 92.1793 21.35 91.7C23.2434 83.9397 27.6881 77.0402 33.9713 72.1079C40.2545 67.1756 48.0122 64.4964 56 64.5H63.95C71.9492 64.4814 79.7208 67.1612 86.0085 72.1061C92.2962 77.0509 96.7325 83.9719 98.6 91.75C98.8277 92.7174 98.6673 93.7354 98.1532 94.586C97.6392 95.4365 96.8124 96.0518 95.85 96.3L95 96.4Z" fill="#003049"/>
<path d="M60.0002 111.55C49.8046 111.55 39.8379 108.527 31.3606 102.862C22.8832 97.1979 16.2759 89.1468 12.3742 79.7273C8.47253 70.3078 7.45167 59.9428 9.44074 49.9431C11.4298 39.9433 16.3395 30.758 23.5489 23.5486C30.7583 16.3392 39.9436 11.4296 49.9433 9.44049C59.943 7.45142 70.308 8.47229 79.7276 12.374C89.1471 16.2757 97.1981 22.883 102.862 31.3603C108.527 39.8377 111.55 49.8043 111.55 60C111.537 73.6678 106.102 86.7721 96.437 96.4367C86.7723 106.101 73.6681 111.537 60.0002 111.55V111.55ZM60.0002 15.95C51.288 15.95 42.7713 18.5335 35.5274 23.3737C28.2834 28.214 22.6374 35.0937 19.3033 43.1428C15.9693 51.1919 15.0969 60.0488 16.7966 68.5937C18.4963 77.1386 22.6917 84.9875 28.8522 91.148C35.0127 97.3085 42.8616 101.504 51.4065 103.204C59.9514 104.903 68.8083 104.031 76.8574 100.697C84.9065 97.3628 91.7862 91.7168 96.6265 84.4728C101.467 77.2289 104.05 68.7122 104.05 60C104.037 48.3213 99.3918 37.1247 91.1337 28.8665C82.8756 20.6084 71.6789 15.9632 60.0002 15.95V15.95Z" fill="#003049"/>
</svg>
