<svg width="70" height="70" viewBox="0 0 70 70" fill="none" xmlns="http://www.w3.org/2000/svg">
<path d="M35 63.4375C29.3756 63.4375 23.8775 61.7697 19.201 58.6449C14.5245 55.5202 10.8796 51.0788 8.72719 45.8826C6.57482 40.6863 6.01166 34.9685 7.10893 29.4521C8.2062 23.9358 10.9146 18.8687 14.8917 14.8917C18.8687 10.9146 23.9358 8.20619 29.4521 7.10892C34.9685 6.01165 40.6863 6.57481 45.8826 8.72718C51.0788 10.8795 55.5202 14.5245 58.6449 19.201C61.7697 23.8775 63.4375 29.3756 63.4375 35C63.4298 42.5397 60.4312 49.7684 55.0998 55.0998C49.7684 60.4312 42.5397 63.4298 35 63.4375ZM35 10.9375C30.2409 10.9375 25.5887 12.3487 21.6316 14.9928C17.6745 17.6368 14.5904 21.3948 12.7692 25.7917C10.9479 30.1885 10.4714 35.0267 11.3999 39.6944C12.3283 44.362 14.6201 48.6496 17.9853 52.0148C21.3505 55.38 25.638 57.6717 30.3057 58.6001C34.9733 59.5286 39.8115 59.0521 44.2083 57.2309C48.6052 55.4096 52.3632 52.3255 55.0073 48.3684C57.6513 44.4114 59.0625 39.7591 59.0625 35C59.0548 28.6206 56.5172 22.5047 52.0062 17.9938C47.4953 13.4828 41.3794 10.9452 35 10.9375Z" fill="#2A9D8F"/>
<path d="M43.75 50.6917C43.3931 50.6911 43.0421 50.6008 42.7292 50.4292L35 46.3458L27.2417 50.4292C26.8796 50.618 26.4718 50.7017 26.0646 50.6707C25.6574 50.6398 25.267 50.4955 24.9375 50.2542C24.6131 50.0112 24.3605 49.6851 24.2065 49.3102C24.0524 48.9354 24.0027 48.5258 24.0625 48.125L25.55 39.375L19.2792 33.3958C18.989 33.1088 18.7837 32.7472 18.6859 32.3509C18.5881 31.9547 18.6017 31.5391 18.725 31.15C18.8456 30.7719 19.0667 30.4338 19.3647 30.1718C19.6627 29.9097 20.0263 29.7337 20.4167 29.6625L29.1667 28.3792L33.0458 20.4167C33.2476 20.0783 33.5337 19.798 33.8763 19.6034C34.2188 19.4088 34.606 19.3065 35 19.3065C35.394 19.3065 35.7812 19.4088 36.1238 19.6034C36.4663 19.798 36.7525 20.0783 36.9542 20.4167L40.8333 28.3792L49.5833 29.6625C49.9895 29.7188 50.3717 29.8881 50.6863 30.1511C51.0009 30.4141 51.2352 30.7602 51.3625 31.15C51.4859 31.5391 51.4994 31.9547 51.4016 32.3509C51.3038 32.7472 51.0985 33.1088 50.8083 33.3958L44.5375 39.4917L46.025 48.2417C46.0848 48.6425 46.0351 49.052 45.8811 49.4269C45.727 49.8017 45.4744 50.1279 45.15 50.3708C44.7346 50.6367 44.2398 50.7501 43.75 50.6917ZM35 41.6792C35.3569 41.6797 35.708 41.77 36.0208 41.9417L40.8625 44.4792L39.9292 39.1125C39.8677 38.7591 39.8941 38.3961 40.006 38.0553C40.1179 37.7145 40.3119 37.4065 40.5708 37.1583L44.4792 33.3375L39.0833 32.55C38.7289 32.5039 38.3914 32.3705 38.1012 32.1618C37.8111 31.9531 37.5773 31.6756 37.4208 31.3542L35 26.4542L32.5792 31.3542C32.4228 31.6756 32.189 31.9531 31.8988 32.1618C31.6086 32.3705 31.2711 32.5039 30.9167 32.55L25.5208 33.3375L29.4292 37.1583C29.6881 37.4065 29.8821 37.7145 29.994 38.0553C30.1059 38.3961 30.1323 38.7591 30.0708 39.1125L29.1667 44.4792L34.0083 41.9417C34.3126 41.7747 34.653 41.6845 35 41.6792Z" fill="#2A9D8F"/>
</svg>
