<svg width="180" height="180" viewBox="0 0 180 180" fill="none" xmlns="http://www.w3.org/2000/svg">
<path d="M89.9999 108C82.9624 108.015 76.0789 105.941 70.2212 102.04C64.3636 98.1394 59.7954 92.588 57.0955 86.0891C54.3955 79.5901 53.6851 72.436 55.0545 65.533C56.4238 58.63 59.8111 52.2887 64.7874 47.3124C69.7636 42.3362 76.1049 38.9488 83.0079 37.5795C89.9109 36.2102 97.065 36.9205 103.564 39.6205C110.063 42.3205 115.614 46.8887 119.515 52.7463C123.416 58.6039 125.49 65.4875 125.475 72.525C125.475 81.9336 121.737 90.9568 115.085 97.6096C108.432 104.262 99.4085 108 89.9999 108ZM89.9999 48C85.1907 47.9852 80.4852 49.3977 76.4792 52.0588C72.4732 54.7199 69.347 58.5098 67.4963 62.9487C65.6455 67.3876 65.1536 72.2759 66.0827 76.9946C67.0119 81.7132 69.3203 86.0501 72.7157 89.456C76.1111 92.8619 80.4408 95.1837 85.1566 96.1274C89.8724 97.0712 94.7621 96.5943 99.2067 94.7574C103.651 92.9204 107.451 89.8058 110.124 85.8081C112.798 81.8104 114.225 77.1093 114.225 72.3C114.166 65.9073 111.59 59.7954 107.055 55.2889C102.521 50.7824 96.3929 48.2445 89.9999 48.225V48Z" fill="#F77F00"/>
<path d="M142.5 144.6C141.24 144.596 140.018 144.163 139.037 143.372C138.056 142.582 137.372 141.48 137.1 140.25C134.861 131.042 129.591 122.855 122.136 117.006C114.681 111.156 105.476 107.984 95.9999 108H83.9999C74.537 108.001 65.3487 111.181 57.9093 117.029C50.4698 122.877 45.2104 131.055 42.9749 140.25C42.7977 140.969 42.4805 141.646 42.0416 142.242C41.6026 142.839 41.0505 143.343 40.4168 143.726C39.783 144.109 39.08 144.364 38.3479 144.475C37.6158 144.586 36.8689 144.552 36.1499 144.375C35.431 144.198 34.7539 143.881 34.1575 143.442C33.5611 143.003 33.057 142.451 32.6739 141.817C32.2909 141.183 32.0364 140.48 31.9251 139.748C31.8137 139.016 31.8477 138.269 32.0249 137.55C34.865 125.91 41.532 115.56 50.9568 108.162C60.3817 100.763 72.0181 96.7447 83.9999 96.75H95.9249C107.924 96.7222 119.581 100.742 129.013 108.159C138.444 115.576 145.099 125.958 147.9 137.625C148.241 139.076 148.001 140.603 147.23 141.879C146.459 143.155 145.218 144.078 143.775 144.45L142.5 144.6Z" fill="#F77F00"/>
<path d="M90 167.325C74.7065 167.325 59.7565 162.79 47.0405 154.293C34.3245 145.797 24.4135 133.72 18.561 119.591C12.7084 105.462 11.1771 89.9142 14.1607 74.9146C17.1443 59.9151 24.5088 46.1371 35.3229 35.323C46.137 24.5089 59.915 17.1444 74.9146 14.1608C89.9142 11.1772 105.462 12.7085 119.591 18.561C133.72 24.4136 145.797 34.3245 154.293 47.0405C162.79 59.7566 167.325 74.7066 167.325 90C167.305 110.502 159.152 130.158 144.655 144.655C130.158 159.152 110.502 167.305 90 167.325ZM90 23.925C76.9316 23.925 64.1566 27.8002 53.2907 35.0606C42.4247 42.3211 33.9557 52.6406 28.9546 64.7142C23.9536 76.7878 22.6451 90.0733 25.1946 102.891C27.7441 115.708 34.0371 127.481 43.2779 136.722C52.5186 145.963 64.2921 152.256 77.1094 154.805C89.9267 157.355 103.212 156.046 115.286 151.045C127.359 146.044 137.679 137.575 144.939 126.709C152.2 115.843 156.075 103.068 156.075 90C156.055 72.4819 149.087 55.687 136.7 43.2998C124.313 30.9127 107.518 23.9449 90 23.925Z" fill="#F77F00"/>
</svg>
