<svg width="50" height="50" viewBox="0 0 50 50" fill="none" xmlns="http://www.w3.org/2000/svg">
<path d="M27.0833 43.2083C26.883 43.2376 26.6794 43.2376 26.4791 43.2083C26.1924 43.0881 25.9481 42.8852 25.7774 42.6254C25.6067 42.3656 25.5173 42.0608 25.5208 41.75V34.7916H6.24994C5.85803 34.7825 5.48342 34.6284 5.19863 34.359C4.91384 34.0896 4.73912 33.7241 4.70828 33.3333V16.6666C4.69707 16.4553 4.72836 16.2438 4.80029 16.0447C4.87222 15.8457 4.98334 15.663 5.12706 15.5077C5.27079 15.3523 5.44422 15.2273 5.63708 15.1401C5.82995 15.0529 6.03834 15.0052 6.24994 15H25.5208V8.35413C25.5204 8.04381 25.6136 7.74058 25.7883 7.48411C25.963 7.22763 26.211 7.02985 26.4999 6.91662C26.7815 6.7924 27.0944 6.75775 27.3962 6.81738C27.6981 6.877 27.9743 7.02802 28.1874 7.24996L44.8541 23.9166C45.1467 24.2096 45.3111 24.6067 45.3111 25.0208C45.3111 25.4349 45.1467 25.832 44.8541 26.125L28.1874 42.7916C28.0418 42.9331 27.8687 43.0432 27.6787 43.1148C27.4888 43.1865 27.2861 43.2183 27.0833 43.2083ZM7.83328 31.6666H27.0833C27.496 31.672 27.8903 31.8384 28.1822 32.1302C28.474 32.4221 28.6404 32.8164 28.6458 33.2291V37.875L41.5208 25L28.6458 12.1458V16.6666C28.641 17.08 28.4768 17.4755 28.1874 17.7708C27.8784 18.0261 27.4831 18.1529 27.0833 18.125H7.83328V31.6666Z" fill="#003049" fill-opacity="0.5"/>
</svg>
