<svg width="70" height="70" viewBox="0 0 70 70" fill="none" xmlns="http://www.w3.org/2000/svg">
<path d="M27.8537 58.0708C26.5554 58.0615 25.3113 57.5492 24.3829 56.6417L6.29954 38.5292C6.09316 38.3281 5.92914 38.0877 5.81715 37.8222C5.70516 37.5567 5.64746 37.2715 5.64746 36.9833C5.64746 36.6952 5.70516 36.41 5.81715 36.1445C5.92914 35.879 6.09316 35.6386 6.29954 35.4375L13.3287 28.3792C14.2729 27.4476 15.546 26.9253 16.8725 26.9253C18.1989 26.9253 19.472 27.4476 20.4162 28.3792L28.5245 36.5167C28.6224 36.6111 28.7531 36.6639 28.8891 36.6639C29.0251 36.6639 29.1558 36.6111 29.2537 36.5167L50.6912 15.0792C51.6251 14.1843 52.8686 13.6847 54.162 13.6847C55.4555 13.6847 56.699 14.1843 57.6329 15.0792L61.862 19.3083C62.7757 20.2266 63.2887 21.4692 63.2887 22.7646C63.2887 24.06 62.7757 25.3026 61.862 26.2208L31.3245 56.6417C30.3961 57.5492 29.152 58.0615 27.8537 58.0708ZM10.937 36.9833L27.4745 53.5208C27.5724 53.6153 27.7031 53.6681 27.8391 53.6681C27.9751 53.6681 28.1058 53.6153 28.2037 53.5208L58.6245 23.1292C58.719 23.0313 58.7718 22.9006 58.7718 22.7646C58.7718 22.6286 58.719 22.4979 58.6245 22.4L54.3954 18.1708C54.2926 18.0745 54.1571 18.0208 54.0162 18.0208C53.8753 18.0208 53.7398 18.0745 53.637 18.1708L32.0829 39.6083C31.1504 40.4947 29.9131 40.9889 28.6266 40.9889C27.3401 40.9889 26.1028 40.4947 25.1704 39.6083L17.1787 31.4708C17.1355 31.4106 17.0786 31.3616 17.0126 31.3277C16.9467 31.2939 16.8737 31.2762 16.7995 31.2762C16.7254 31.2762 16.6524 31.2939 16.5864 31.3277C16.5205 31.3616 16.4636 31.4106 16.4204 31.4708L10.937 36.9833Z" fill="white"/>
</svg>
