<svg width="60" height="60" viewBox="0 0 60 60" fill="none" xmlns="http://www.w3.org/2000/svg">
<path d="M30 54.425C25.1812 54.425 20.4705 52.9967 16.4631 50.3205C12.4558 47.6444 9.33157 43.8405 7.48522 39.3894C5.63887 34.9384 5.15326 30.0399 6.08973 25.313C7.02619 20.5861 9.34273 16.2428 12.7466 12.8319C16.1505 9.42105 20.4891 7.09562 25.2141 6.14947C29.939 5.20332 34.8385 5.67889 39.2933 7.51612C43.7481 9.35334 47.5584 12.4698 50.2427 16.4716C52.9271 20.4735 54.3651 25.1812 54.375 30C54.3782 33.2043 53.7504 36.3778 52.5272 39.3394C51.304 42.301 49.5095 44.9927 47.2461 47.2607C44.9826 49.5288 42.2946 51.3288 39.3355 52.5581C36.3764 53.7873 33.2042 54.4217 30 54.425V54.425ZM30 9.425C25.9186 9.42501 21.929 10.6359 18.5361 12.9044C15.1433 15.173 12.4998 18.3971 10.9402 22.1687C9.38063 25.9404 8.97512 30.0899 9.775 34.0922C10.5749 38.0944 12.5442 41.7693 15.4337 44.6518C18.3231 47.5342 22.0028 49.4946 26.007 50.2848C30.0111 51.0749 34.1597 50.6594 37.9275 49.0906C41.6954 47.5219 44.9131 44.8706 47.1734 41.4722C49.4336 38.0739 50.6349 34.0814 50.625 30C50.6051 24.5406 48.4242 19.3112 44.5591 15.4555C40.694 11.5998 35.4594 9.43157 30 9.425V9.425Z" fill="#F77F00"/>
<path d="M30 40.925C29.5047 40.9185 29.0316 40.7189 28.6813 40.3687C28.3311 40.0184 28.1315 39.5453 28.125 39.05V21.05C28.125 20.5527 28.3225 20.0758 28.6742 19.7242C29.0258 19.3725 29.5027 19.175 30 19.175C30.4973 19.175 30.9742 19.3725 31.3258 19.7242C31.6775 20.0758 31.875 20.5527 31.875 21.05V39.05C31.8685 39.5453 31.6689 40.0184 31.3187 40.3687C30.9684 40.7189 30.4953 40.9185 30 40.925V40.925Z" fill="#F77F00"/>
<path d="M39 31.925H21C20.5027 31.925 20.0258 31.7274 19.6742 31.3758C19.3225 31.0242 19.125 30.5473 19.125 30.05C19.125 29.5527 19.3225 29.0758 19.6742 28.7242C20.0258 28.3725 20.5027 28.175 21 28.175H39C39.4973 28.175 39.9742 28.3725 40.3258 28.7242C40.6775 29.0758 40.875 29.5527 40.875 30.05C40.875 30.5473 40.6775 31.0242 40.3258 31.3758C39.9742 31.7274 39.4973 31.925 39 31.925V31.925Z" fill="#F77F00"/>
</svg>
