<svg width="100" height="100" viewBox="0 0 100 100" fill="none" xmlns="http://www.w3.org/2000/svg">
<path d="M50.0001 90.7083C41.9687 90.7083 34.1176 88.3278 27.4387 83.8675C20.7598 79.4073 15.5527 73.0674 12.4755 65.649C9.39824 58.2306 8.58888 50.0666 10.1497 42.1884C11.7104 34.3102 15.5713 27.0714 21.2445 21.3866C26.9177 15.7018 34.1486 11.826 42.0235 10.2491C49.8985 8.67219 58.0642 9.46482 65.4889 12.5269C72.9136 15.5889 79.2641 20.7829 83.738 27.4527C88.212 34.1225 90.6086 41.9687 90.6251 50C90.6305 55.3404 89.5841 60.6296 87.5454 65.5656C85.5068 70.5016 82.5159 74.9878 78.7435 78.7679C74.9712 82.548 70.4912 85.5481 65.5593 87.5968C60.6275 89.6456 55.3405 90.7029 50.0001 90.7083V90.7083ZM50.0001 15.7083C43.1978 15.7084 36.5484 17.7265 30.8937 21.5074C25.239 25.2883 20.8331 30.6618 18.2338 36.9479C15.6345 43.234 14.9586 50.1499 16.2918 56.8203C17.6249 63.4906 20.9071 69.6155 25.7229 74.4196C30.5386 79.2237 36.6715 82.491 43.3451 83.8079C50.0186 85.1249 56.9329 84.4323 63.2126 81.8177C69.4924 79.2032 74.8552 74.7843 78.6224 69.1204C82.3895 63.4565 84.3915 56.8023 84.3751 50C84.342 40.901 80.7071 32.1854 74.2653 25.7592C67.8235 19.333 59.0991 15.7193 50.0001 15.7083V15.7083Z" fill="#F77F00"/>
<path d="M50 68.2083C49.1746 68.1976 48.386 67.8648 47.8022 67.2811C47.2185 66.6974 46.8858 65.9088 46.875 65.0833V35.0833C46.875 34.2545 47.2042 33.4597 47.7903 32.8736C48.3763 32.2876 49.1712 31.9583 50 31.9583C50.8288 31.9583 51.6237 32.2876 52.2097 32.8736C52.7958 33.4597 53.125 34.2545 53.125 35.0833V65.0833C53.1142 65.9088 52.7815 66.6974 52.1978 67.2811C51.614 67.8648 50.8254 68.1976 50 68.2083V68.2083Z" fill="#F77F00"/>
<path d="M65 53.2083H35C34.1712 53.2083 33.3763 52.8791 32.7903 52.2931C32.2042 51.707 31.875 50.9121 31.875 50.0833C31.875 49.2545 32.2042 48.4597 32.7903 47.8736C33.3763 47.2876 34.1712 46.9583 35 46.9583H65C65.8288 46.9583 66.6237 47.2876 67.2097 47.8736C67.7958 48.4597 68.125 49.2545 68.125 50.0833C68.125 50.9121 67.7958 51.707 67.2097 52.2931C66.6237 52.8791 65.8288 53.2083 65 53.2083V53.2083Z" fill="#F77F00"/>
</svg>
