<svg width="150" height="150" viewBox="0 0 150 150" fill="none" xmlns="http://www.w3.org/2000/svg">
<path d="M75.0001 100.562C65.4523 100.562 56.2956 96.7696 49.5442 90.0183C42.7929 83.267 39.0001 74.1103 39.0001 64.5625V22.8125C38.9049 21.46 38.9049 20.1025 39.0001 18.75C39.0781 18.1385 39.2757 17.5484 39.5817 17.0133C39.8878 16.4782 40.2962 16.0087 40.7837 15.6314C41.2712 15.2542 41.8283 14.9767 42.423 14.8147C43.0178 14.6527 43.6386 14.6095 44.2501 14.6875C44.8616 14.7655 45.4517 14.9631 45.9868 15.2691C46.5218 15.5752 46.9914 15.9836 47.3687 16.4711C47.7459 16.9586 48.0234 17.5157 48.1854 18.1104C48.3473 18.7052 48.3906 19.326 48.3126 19.9375C48.2463 20.8947 48.2463 21.8553 48.3126 22.8125V64.5625C48.3126 71.6239 51.1177 78.396 56.1109 83.3892C61.104 88.3824 67.8762 91.1875 74.9376 91.1875C81.999 91.1875 88.7711 88.3824 93.7643 83.3892C98.7575 78.396 101.563 71.6239 101.563 64.5625V22.8125C101.629 21.8553 101.629 20.8947 101.563 19.9375C101.591 18.8193 102.019 17.7482 102.768 16.9177C103.517 16.0871 104.538 15.5518 105.648 15.4084C106.757 15.265 107.881 15.523 108.817 16.1358C109.752 16.7486 110.438 17.6758 110.75 18.75C110.845 20.1025 110.845 21.46 110.75 22.8125V64.5625C110.75 74.0671 106.992 83.1862 100.294 89.9303C93.5971 96.6745 84.5045 100.496 75.0001 100.562V100.562Z" fill="#003049"/>
<path d="M109.687 62.5C108.828 62.4926 107.987 62.2552 107.25 61.8125L103.875 59.8125C102.865 59.1678 102.141 58.1608 101.85 56.9984C101.559 55.8361 101.725 54.6066 102.313 53.5625C102.937 52.53 103.939 51.7822 105.107 51.4786C106.275 51.175 107.515 51.3397 108.563 51.9375L110.75 53.25C127.438 52 131.25 33 132.5 24H17.5C18.375 33.0625 22.375 52 39.0625 52.875L41.25 51.5625C42.2979 50.9647 43.5379 50.8 44.7056 51.1036C45.8732 51.4072 46.876 52.155 47.5 53.1875C48.0876 54.2316 48.2532 55.4611 47.9626 56.6235C47.672 57.7858 46.9474 58.7928 45.9375 59.4375L42.5625 61.4375C41.826 61.8802 40.9843 62.1176 40.125 62.125C14.4375 62.125 7.625 34 7.625 19.125C7.68976 17.8871 8.23585 16.7236 9.14668 15.8829C10.0575 15.0421 11.2609 14.5907 12.5 14.625H137.5C138.738 14.6412 139.921 15.1402 140.797 16.0158C141.672 16.8914 142.171 18.0743 142.188 19.3125C142.188 34.1875 135.375 62.5 109.687 62.5Z" fill="#003049"/>
<path d="M75 135.375C73.7618 135.359 72.5789 134.86 71.7033 133.984C70.8277 133.109 70.3287 131.926 70.3125 130.688V95.875C70.3125 94.6318 70.8064 93.4395 71.6854 92.5604C72.5645 91.6814 73.7568 91.1875 75 91.1875C76.2432 91.1875 77.4355 91.6814 78.3146 92.5604C79.1936 93.4395 79.6875 94.6318 79.6875 95.875V130.688C79.6713 131.926 79.1723 133.109 78.2967 133.984C77.4211 134.86 76.2382 135.359 75 135.375V135.375Z" fill="#003049"/>
<path d="M109.812 135.375H47.3125C46.0693 135.375 44.877 134.881 43.9979 134.002C43.1189 133.123 42.625 131.931 42.625 130.688C42.625 129.444 43.1189 128.252 43.9979 127.373C44.877 126.494 46.0693 126 47.3125 126H109.812C111.056 126 112.248 126.494 113.127 127.373C114.006 128.252 114.5 129.444 114.5 130.688C114.5 131.931 114.006 133.123 113.127 134.002C112.248 134.881 111.056 135.375 109.812 135.375Z" fill="#003049"/>
</svg>
