<svg width="70" height="70" viewBox="0 0 70 70" fill="none" xmlns="http://www.w3.org/2000/svg">
<path d="M35 66.0917C33.8315 66.0863 32.6787 65.822 31.6247 65.3176C30.5706 64.8133 29.6415 64.0815 28.9042 63.175L26.3375 60.2583C25.9696 59.829 25.5062 59.4919 24.9845 59.2741C24.4628 59.0563 23.8973 58.9639 23.3333 59.0042L19.3958 59.3542C18.2369 59.4519 17.0706 59.2965 15.9777 58.8986C14.8848 58.5008 13.8915 57.87 13.0667 57.05C12.2494 56.2221 11.6184 55.2291 11.216 54.1376C10.8136 53.046 10.649 51.8811 10.7333 50.7208L11.0542 46.6667C11.0708 46.1156 10.9642 45.5679 10.7422 45.0633C10.5201 44.5587 10.1883 44.11 9.77083 43.75L6.85417 41.2125C5.96422 40.4623 5.24887 39.5268 4.75815 38.4714C4.26743 37.4159 4.01318 36.266 4.01318 35.1021C4.01318 33.9381 4.26743 32.7882 4.75815 31.7328C5.24887 30.6774 5.96422 29.7418 6.85417 28.9917L9.77083 26.425C10.2075 26.0453 10.5466 25.5663 10.7598 25.0283C10.9729 24.4903 11.0539 23.9091 10.9958 23.3333L10.6458 19.3958C10.5329 18.2187 10.6817 17.0312 11.0815 15.9183C11.4813 14.8054 12.1223 13.7946 12.9584 12.9584C13.7946 12.1223 14.8054 11.4813 15.9183 11.0815C17.0312 10.6817 18.2187 10.5329 19.3958 10.6458L23.3333 11.0542C23.8844 11.0708 24.4321 10.9642 24.9367 10.7422C25.4413 10.5201 25.89 10.1883 26.25 9.77083L28.7875 6.85417C29.5262 5.94919 30.4556 5.21851 31.5093 4.71432C32.5631 4.21013 33.7152 3.94488 34.8833 3.9375V3.9375C36.0518 3.94285 37.2046 4.20721 38.2587 4.71154C39.3127 5.21588 40.2419 5.94765 40.9792 6.85417V6.85417L43.5458 9.77083C43.9316 10.2079 44.4158 10.5469 44.9584 10.76C45.5011 10.973 46.0866 11.0538 46.6667 10.9958L50.6042 10.6458C51.7813 10.5329 52.9688 10.6817 54.0817 11.0815C55.1947 11.4813 56.2054 12.1223 57.0416 12.9584C57.8777 13.7946 58.5187 14.8054 58.9185 15.9183C59.3183 17.0312 59.4671 18.2187 59.3542 19.3958L58.9458 23.3333C58.9292 23.8844 59.0358 24.4321 59.2578 24.9367C59.4799 25.4413 59.8117 25.89 60.2292 26.25L63.1458 28.7875C64.0358 29.5377 64.7511 30.4732 65.2419 31.5286C65.7326 32.5841 65.9868 33.734 65.9868 34.8979C65.9868 36.0619 65.7326 37.2118 65.2419 38.2672C64.7511 39.3226 64.0358 40.2582 63.1458 41.0083L60.2292 43.575C59.7925 43.9547 59.4534 44.4337 59.2403 44.9717C59.0271 45.5097 58.9461 46.0909 59.0042 46.6667L59.3542 50.6042C59.4671 51.7813 59.3183 52.9688 58.9185 54.0817C58.5187 55.1946 57.8777 56.2054 57.0416 57.0416C56.2054 57.8777 55.1947 58.5187 54.0817 58.9185C52.9688 59.3183 51.7813 59.4671 50.6042 59.3542L46.6667 58.9458C46.1171 58.9392 45.5724 59.0502 45.0693 59.2716C44.5662 59.4929 44.1164 59.8195 43.75 60.2292L41.2125 63.1458C40.4738 64.0508 39.5444 64.7815 38.4907 65.2857C37.4369 65.7899 36.2848 66.0551 35.1167 66.0625L35 66.0917ZM23.625 54.6292C24.7921 54.6425 25.9422 54.9104 26.9951 55.4142C28.0479 55.918 28.9782 56.6454 29.7208 57.5458L32.2875 60.4625C32.6278 60.8655 33.0522 61.1892 33.5308 61.4109C34.0095 61.6326 34.5308 61.7469 35.0583 61.7458V61.7458C35.6138 61.7746 36.1681 61.6705 36.6754 61.4422C37.1826 61.214 37.6281 60.8681 37.975 60.4333L40.5125 57.5167C41.322 56.5213 42.36 55.7363 43.5382 55.2285C44.7163 54.7207 45.9997 54.5051 47.2792 54.6L51.2167 54.8917C51.7438 54.9366 52.2743 54.8653 52.7709 54.6829C53.2675 54.5005 53.718 54.2114 54.0906 53.8359C54.4633 53.4604 54.7491 53.0078 54.9278 52.5099C55.1065 52.012 55.1738 51.4809 55.125 50.9542L54.8042 47.0458C54.7092 45.7664 54.9249 44.483 55.4327 43.3048C55.9405 42.1267 56.7255 41.0887 57.7208 40.2792L60.6375 37.7125C61.0405 37.3722 61.3642 36.9478 61.5859 36.4692C61.8076 35.9905 61.9219 35.4692 61.9208 34.9417C61.9496 34.3862 61.8455 33.8319 61.6172 33.3246C61.389 32.8174 61.0431 32.3719 60.6083 32.025L57.6917 29.4875C56.7001 28.6748 55.9178 27.6363 55.4103 26.4589C54.9028 25.2816 54.685 23.9997 54.775 22.7208L55.0667 18.7833C55.1116 18.2562 55.0403 17.7257 54.8579 17.2291C54.6755 16.7325 54.3864 16.282 54.0109 15.9094C53.6355 15.5367 53.1828 15.2509 52.6849 15.0722C52.187 14.8935 51.6559 14.8262 51.1292 14.875L47.2208 15.1958C45.9414 15.2908 44.658 15.0751 43.4798 14.5673C42.3017 14.0595 41.2637 13.2745 40.4542 12.2792L37.8875 9.3625C37.5154 8.981 37.0637 8.68644 36.5645 8.49988C36.0653 8.31332 35.5311 8.23938 35 8.28333V8.28333C34.4445 8.25461 33.8902 8.35869 33.383 8.58694C32.8758 8.81519 32.4302 9.16104 32.0833 9.59583L29.5458 12.5125C28.7285 13.4985 27.6891 14.2769 26.513 14.7839C25.3368 15.2908 24.0573 15.512 22.7792 15.4292L18.8417 15.1375C18.3079 15.0833 17.7688 15.1495 17.2641 15.3312C16.7593 15.5129 16.3017 15.8055 15.925 16.1875C15.5464 16.5666 15.2561 17.0246 15.0746 17.5287C14.8931 18.0328 14.8249 18.5707 14.875 19.1042L15.1958 23.0125C15.2908 24.2919 15.0751 25.5754 14.5673 26.7535C14.0595 27.9317 13.2745 28.9697 12.2792 29.7792L9.3625 32.3458C8.95947 32.6862 8.63575 33.1105 8.41406 33.5892C8.19237 34.0678 8.07807 34.5892 8.07917 35.1167C8.05044 35.6721 8.15452 36.2265 8.38277 36.7337C8.61102 37.2409 8.95688 37.6864 9.39167 38.0333L12.3083 40.5708C13.2999 41.3835 14.0822 42.4221 14.5897 43.5994C15.0972 44.7768 15.315 46.0586 15.225 47.3375L14.9333 51.275C14.8812 51.8086 14.9484 52.3471 15.13 52.8515C15.3116 53.356 15.6031 53.8137 15.9833 54.1917C16.3588 54.5754 16.8162 54.8691 17.3213 55.051C17.8264 55.2328 18.3661 55.298 18.9 55.2417L22.8083 54.9208L23.625 54.6292Z" fill="#003049"/>
<path d="M35 45.9375C32.0992 45.9375 29.3172 44.7852 27.266 42.734C25.2148 40.6828 24.0625 37.9008 24.0625 35C24.0625 32.0992 25.2148 29.3172 27.266 27.266C29.3172 25.2148 32.0992 24.0625 35 24.0625V24.0625C37.9008 24.0625 40.6828 25.2148 42.734 27.266C44.7852 29.3172 45.9375 32.0992 45.9375 35C45.9375 37.9008 44.7852 40.6828 42.734 42.734C40.6828 44.7852 37.9008 45.9375 35 45.9375ZM35 28.4375C33.2595 28.4375 31.5903 29.1289 30.3596 30.3596C29.1289 31.5903 28.4375 33.2595 28.4375 35C28.4375 36.7405 29.1289 38.4097 30.3596 39.6404C31.5903 40.8711 33.2595 41.5625 35 41.5625V41.5625C36.7405 41.5625 38.4097 40.8711 39.6404 39.6404C40.8711 38.4097 41.5625 36.7405 41.5625 35C41.5625 33.2595 40.8711 31.5903 39.6404 30.3596C38.4097 29.1289 36.7405 28.4375 35 28.4375Z" fill="#003049"/>
</svg>
