<svg width="50" height="50" viewBox="0 0 50 50" fill="none" xmlns="http://www.w3.org/2000/svg">
<path d="M25 45.3541C20.9843 45.3541 17.0588 44.1639 13.7193 41.9337C10.3798 39.7036 7.7763 36.5337 6.23768 32.8245C4.69906 29.1153 4.29438 25.0333 5.07477 21.0942C5.85516 17.1551 7.78561 13.5357 10.6222 10.6933C13.4588 7.85085 17.0742 5.91299 21.0117 5.12453C24.9492 4.33607 29.0321 4.73238 32.7444 6.2634C36.4567 7.79442 39.632 10.3914 41.869 13.7263C44.1059 17.0612 45.3042 20.9843 45.3125 25C45.3152 27.6702 44.792 30.3148 43.7727 32.7828C42.7533 35.2508 41.2579 37.4939 39.3717 39.3839C37.4855 41.274 35.2455 42.774 32.7796 43.7984C30.3137 44.8228 27.6702 45.3514 25 45.3541ZM25 7.85413C21.5988 7.85414 18.2742 8.86323 15.4468 10.7537C12.6194 12.6441 10.4165 15.3309 9.11684 18.4739C7.81719 21.617 7.47926 25.0749 8.14583 28.4101C8.8124 31.7453 10.4535 34.8077 12.8614 37.2098C15.2693 39.6118 18.3357 41.2455 21.6725 41.9039C25.0093 42.5624 28.4664 42.2161 31.6063 40.9088C34.7461 39.6016 37.4276 37.3921 39.3111 34.5602C41.1947 31.7282 42.1957 28.4011 42.1875 25C42.1709 20.4505 40.3535 16.0927 37.1326 12.8796C33.9117 9.66648 29.5495 7.85961 25 7.85413Z" fill="#F77F00"/>
<path d="M25 34.1041C24.5873 34.0987 24.193 33.9324 23.9011 33.6405C23.6092 33.3486 23.4429 32.9543 23.4375 32.5416V17.5416C23.4375 17.1272 23.6021 16.7298 23.8951 16.4368C24.1882 16.1437 24.5856 15.9791 25 15.9791C25.4144 15.9791 25.8118 16.1437 26.1049 16.4368C26.3979 16.7298 26.5625 17.1272 26.5625 17.5416V32.5416C26.5571 32.9543 26.3908 33.3486 26.0989 33.6405C25.807 33.9324 25.4127 34.0987 25 34.1041Z" fill="#F77F00"/>
<path d="M32.5 26.6041H17.5C17.0856 26.6041 16.6882 26.4395 16.3951 26.1465C16.1021 25.8535 15.9375 25.456 15.9375 25.0416C15.9375 24.6272 16.1021 24.2298 16.3951 23.9368C16.6882 23.6437 17.0856 23.4791 17.5 23.4791H32.5C32.9144 23.4791 33.3118 23.6437 33.6049 23.9368C33.8979 24.2298 34.0625 24.6272 34.0625 25.0416C34.0625 25.456 33.8979 25.8535 33.6049 26.1465C33.3118 26.4395 32.9144 26.6041 32.5 26.6041Z" fill="#F77F00"/>
</svg>
