<svg width="100" height="100" viewBox="0 0 100 100" fill="none" xmlns="http://www.w3.org/2000/svg">
<path d="M51.0414 51.0417C46.3028 51.0417 41.6707 49.6365 37.7308 47.004C33.7909 44.3714 30.7201 40.6296 28.9067 36.2518C27.0934 31.874 26.6189 27.0568 27.5434 22.4093C28.4678 17.7618 30.7496 13.4929 34.1003 10.1422C37.4509 6.79161 41.7199 4.5098 46.3673 3.58536C51.0148 2.66093 55.832 3.13538 60.2098 4.94873C64.5876 6.76208 68.3294 9.83288 70.962 13.7728C73.5946 17.7127 74.9997 22.3448 74.9997 27.0833C74.9887 33.4341 72.461 39.5216 67.9703 44.0123C63.4796 48.5029 57.3921 51.0307 51.0414 51.0417V51.0417ZM51.0414 9.37501C47.539 9.37501 44.1152 10.4136 41.2031 12.3594C38.291 14.3052 36.0213 17.0709 34.681 20.3067C33.3407 23.5424 32.99 27.103 33.6733 30.5381C34.3566 33.9731 36.0431 37.1285 38.5197 39.605C40.9962 42.0816 44.1515 43.7681 47.5866 44.4514C51.0217 45.1347 54.5823 44.784 57.818 43.4437C61.0538 42.1034 63.8195 39.8337 65.7653 36.9216C67.7111 34.0094 68.7497 30.5857 68.7497 27.0833C68.7387 22.3902 66.8695 17.8924 63.5509 14.5738C60.2323 11.2552 55.7345 9.38601 51.0414 9.37501V9.37501Z" fill="white"/>
<path d="M13.5415 84.375C12.7161 84.3642 11.9275 84.0315 11.3437 83.4477C10.76 82.864 10.4273 82.0754 10.4165 81.25C10.4385 71.5874 14.2867 62.3268 21.1192 55.4943C27.9517 48.6618 37.2122 44.8136 46.8748 44.7916H55.2082C56.037 44.7916 56.8318 45.1209 57.4179 45.7069C58.0039 46.293 58.3332 47.0878 58.3332 47.9166C58.3332 48.7454 58.0039 49.5403 57.4179 50.1263C56.8318 50.7124 56.037 51.0416 55.2082 51.0416H46.8748C38.8665 51.0526 31.1893 54.2388 25.5265 59.9016C19.8637 65.5644 16.6775 73.2416 16.6665 81.25C16.6557 82.0754 16.323 82.864 15.7393 83.4477C15.1556 84.0315 14.3669 84.3642 13.5415 84.375V84.375Z" fill="white"/>
<path d="M69.7915 96.875C68.9661 96.8642 68.1775 96.5315 67.5937 95.9477C67.01 95.364 66.6773 94.5754 66.6665 93.75V60.4166C66.6665 59.5878 66.9957 58.793 67.5818 58.2069C68.1678 57.6209 68.9627 57.2916 69.7915 57.2916C70.6203 57.2916 71.4152 57.6209 72.0012 58.2069C72.5873 58.793 72.9165 59.5878 72.9165 60.4166V93.75C72.9057 94.5754 72.573 95.364 71.9893 95.9477C71.4055 96.5315 70.6169 96.8642 69.7915 96.875V96.875Z" fill="white"/>
<path d="M86.4583 80.2084H53.125C52.2962 80.2084 51.5013 79.8791 50.9153 79.2931C50.3292 78.707 50 77.9122 50 77.0834C50 76.2546 50.3292 75.4597 50.9153 74.8737C51.5013 74.2876 52.2962 73.9584 53.125 73.9584H86.4583C87.2871 73.9584 88.082 74.2876 88.668 74.8737C89.2541 75.4597 89.5833 76.2546 89.5833 77.0834C89.5833 77.9122 89.2541 78.707 88.668 79.2931C88.082 79.8791 87.2871 80.2084 86.4583 80.2084Z" fill="white"/>
</svg>
