<svg width="150" height="150" viewBox="0 0 150 150" fill="none" xmlns="http://www.w3.org/2000/svg">
<path d="M133.195 16.8047C132.016 15.6265 130.545 14.784 128.932 14.3638C127.319 13.9436 125.623 13.9609 124.02 14.414H123.932L11.4668 48.539C9.641 49.0652 8.01818 50.1338 6.8134 51.6031C5.60862 53.0725 4.87877 54.8732 4.72055 56.7668C4.56233 58.6603 4.98323 60.5572 5.92745 62.2061C6.87167 63.855 8.29465 65.1781 10.0078 66L59.7656 90.2343L83.9648 139.963C84.7175 141.569 85.9142 142.926 87.4134 143.874C88.9127 144.822 90.652 145.321 92.4258 145.312C92.6953 145.312 92.9648 145.301 93.2344 145.277C95.1264 145.124 96.9263 144.396 98.3925 143.19C99.8588 141.985 100.921 140.36 101.437 138.533L135.539 26.0683C135.539 26.039 135.539 26.0097 135.539 25.9804C135.998 24.3806 136.023 22.6874 135.611 21.0748C135.199 19.4623 134.365 17.9884 133.195 16.8047ZM92.4785 135.85L92.4492 135.932V135.891L68.9766 87.6679L97.1016 59.5429C97.9435 58.6567 98.406 57.4766 98.3903 56.2543C98.3747 55.032 97.8822 53.8641 97.0178 52.9998C96.1534 52.1354 94.9855 51.6428 93.7632 51.6272C92.5409 51.6115 91.3608 52.074 90.4746 52.916L62.3496 81.041L14.1094 57.5683H14.0684H14.1504L126.562 23.4375L92.4785 135.85Z" fill="#0088CC"/>
</svg>
