<svg width="150" height="150" viewBox="0 0 150 150" fill="none" xmlns="http://www.w3.org/2000/svg">
<path d="M68.7012 92.5312C74.9836 88.3488 79.7533 82.2555 82.3049 75.1526C84.8565 68.0497 85.0546 60.3142 82.8698 53.09C80.685 45.8659 76.2334 39.5365 70.1732 35.038C64.1131 30.5395 56.7661 28.1107 49.2188 28.1107C41.6714 28.1107 34.3245 30.5395 28.2643 35.038C22.2041 39.5365 17.7525 45.8659 15.5677 53.09C13.383 60.3142 13.581 68.0497 16.1326 75.1526C18.6842 82.2555 23.4539 88.3488 29.7363 92.5312C18.372 96.7197 8.66665 104.47 2.06838 114.627C1.72159 115.142 1.48072 115.722 1.35975 116.331C1.23878 116.94 1.24014 117.567 1.36373 118.176C1.48733 118.785 1.73071 119.363 2.07971 119.877C2.42872 120.391 2.87639 120.83 3.39671 121.17C3.91703 121.509 4.49962 121.742 5.11061 121.854C5.7216 121.966 6.34881 121.956 6.95577 121.824C7.56274 121.691 8.13735 121.44 8.64622 121.083C9.15508 120.727 9.58804 120.273 9.91994 119.748C14.1761 113.202 20.0002 107.823 26.8631 104.099C33.7261 100.375 41.4106 98.4243 49.2188 98.4243C57.0269 98.4243 64.7114 100.375 71.5744 104.099C78.4374 107.823 84.2614 113.202 88.5176 119.748C89.2051 120.77 90.2672 121.48 91.4741 121.725C92.6811 121.97 93.936 121.73 94.9676 121.057C95.9991 120.385 96.7244 119.333 96.9867 118.13C97.249 116.926 97.0272 115.668 96.3692 114.627C89.7709 104.47 80.0655 96.7197 68.7012 92.5312ZM23.4375 63.2812C23.4375 58.1822 24.9496 53.1976 27.7824 48.9579C30.6153 44.7182 34.6418 41.4138 39.3527 39.4625C44.0636 37.5111 49.2474 37.0006 54.2484 37.9954C59.2495 38.9901 63.8433 41.4456 67.4489 45.0511C71.0544 48.6567 73.5099 53.2505 74.5046 58.2516C75.4994 63.2526 74.9889 68.4364 73.0375 73.1473C71.0862 77.8582 67.7818 81.8847 63.5421 84.7176C59.3024 87.5504 54.3178 89.0625 49.2188 89.0625C42.3835 89.0547 35.8305 86.336 30.9972 81.5028C26.164 76.6695 23.4453 70.1165 23.4375 63.2812ZM146.566 121.113C145.525 121.792 144.257 122.03 143.041 121.774C141.824 121.518 140.759 120.789 140.08 119.748C135.829 113.198 130.006 107.816 123.141 104.094C116.277 100.372 108.59 98.427 100.781 98.4375C99.5381 98.4375 98.3458 97.9436 97.4667 97.0646C96.5876 96.1855 96.0938 94.9932 96.0938 93.75C96.0938 92.5068 96.5876 91.3145 97.4667 90.4354C98.3458 89.5563 99.5381 89.0625 100.781 89.0625C104.578 89.0589 108.327 88.2168 111.761 86.5964C115.194 84.9759 118.227 82.6171 120.644 79.6885C123.06 76.7599 124.799 73.3338 125.738 69.6549C126.677 65.9761 126.791 62.1353 126.073 58.4071C125.355 54.6789 123.823 51.1552 121.586 48.0879C119.348 45.0205 116.461 42.4852 113.13 40.6631C109.799 38.8409 106.107 37.777 102.317 37.5472C98.5274 37.3175 94.7337 37.9276 91.2071 39.334C90.632 39.5825 90.0131 39.7133 89.3867 39.7186C88.7602 39.7239 88.1391 39.6036 87.56 39.3648C86.9809 39.126 86.4555 38.7735 86.0149 38.3282C85.5743 37.8829 85.2275 37.3538 84.9948 36.7722C84.7622 36.1906 84.6484 35.5682 84.6604 34.9419C84.6723 34.3156 84.8097 33.698 85.0644 33.1257C85.319 32.5533 85.6858 32.0379 86.1431 31.6097C86.6003 31.1815 87.1388 30.8493 87.7266 30.6328C95.7976 27.414 104.775 27.2981 112.926 30.3076C121.078 33.3172 127.826 39.2388 131.869 46.9302C135.912 54.6215 136.963 63.5377 134.82 71.9585C132.677 80.3793 127.491 87.7082 120.264 92.5312C131.628 96.7197 141.333 104.47 147.932 114.627C148.611 115.668 148.848 116.936 148.592 118.153C148.336 119.369 147.608 120.434 146.566 121.113Z" fill="white"/>
</svg>
