<svg width="150" height="150" viewBox="0 0 150 150" fill="none" xmlns="http://www.w3.org/2000/svg">
<path d="M125.83 124.049L89.1503 66.4043L125.344 26.5898C126.162 25.6671 126.584 24.459 126.518 23.2273C126.452 21.9956 125.903 20.8397 124.99 20.0101C124.077 19.1805 122.874 18.7442 121.641 18.7957C120.409 18.8472 119.247 19.3823 118.406 20.2852L83.9296 58.207L60.205 20.9238C59.782 20.2579 59.1977 19.7096 58.5063 19.3296C57.815 18.9496 57.0389 18.7502 56.25 18.75H28.125C27.2845 18.7496 26.4594 18.9752 25.736 19.4031C25.0127 19.831 24.4176 20.4455 24.0133 21.1824C23.609 21.9192 23.4101 22.7511 23.4377 23.5911C23.4652 24.4311 23.7181 25.2483 24.1699 25.957L60.8496 83.5957L24.6562 123.439C24.2336 123.893 23.9052 124.427 23.6902 125.009C23.4752 125.591 23.3779 126.209 23.4037 126.829C23.4296 127.449 23.5783 128.057 23.8411 128.619C24.1038 129.181 24.4755 129.685 24.9346 130.102C25.3936 130.52 25.9309 130.841 26.5153 131.049C27.0997 131.257 27.7196 131.347 28.339 131.314C28.9584 131.281 29.565 131.125 30.1237 130.855C30.6824 130.586 31.1821 130.208 31.5937 129.744L66.0703 91.8223L89.7949 129.105C90.2214 129.766 90.8072 130.309 91.4983 130.683C92.1895 131.058 92.9638 131.253 93.75 131.25H121.875C122.715 131.25 123.539 131.024 124.261 130.596C124.984 130.169 125.578 129.555 125.982 128.819C126.386 128.083 126.585 127.252 126.559 126.413C126.532 125.574 126.28 124.757 125.83 124.049ZM96.3222 121.875L36.6621 28.125H53.6543L113.338 121.875H96.3222Z" fill="black"/>
</svg>
