<svg width="150" height="150" viewBox="0 0 150 150" fill="none" xmlns="http://www.w3.org/2000/svg">
<path d="M96.3516 71.0977L68.2266 52.3477C67.5205 51.8766 66.6997 51.606 65.8518 51.565C65.004 51.5239 64.1609 51.7138 63.4126 52.1144C62.6642 52.5151 62.0387 53.1114 61.6028 53.8398C61.1669 54.5681 60.9369 55.4012 60.9375 56.25V93.75C60.9369 94.5989 61.1669 95.4319 61.6028 96.1603C62.0387 96.8886 62.6642 97.485 63.4126 97.8856C64.1609 98.2862 65.004 98.4762 65.8518 98.4351C66.6997 98.394 67.5205 98.1235 68.2266 97.6524L96.3516 78.9024C96.9945 78.4745 97.5218 77.8943 97.8865 77.2135C98.2512 76.5327 98.4421 75.7724 98.4421 75C98.4421 74.2277 98.2512 73.4673 97.8865 72.7865C97.5218 72.1057 96.9945 71.5256 96.3516 71.0977ZM70.3125 84.9903V65.0391L85.3008 75L70.3125 84.9903ZM137.303 40.7344C136.751 38.5743 135.693 36.5765 134.217 34.9057C132.74 33.2349 130.888 31.939 128.812 31.125C108.727 23.3672 76.7578 23.4375 75 23.4375C73.2422 23.4375 41.2734 23.3672 21.1875 31.125C19.1119 31.939 17.2596 33.2349 15.7834 34.9057C14.3072 36.5765 13.2494 38.5743 12.6973 40.7344C11.1797 46.5821 9.375 57.2696 9.375 75C9.375 92.7305 11.1797 103.418 12.6973 109.266C13.2485 111.427 14.306 113.426 15.7822 115.098C17.2585 116.77 19.1112 118.066 21.1875 118.881C40.4297 126.305 70.5469 126.563 74.6133 126.563H75.3867C79.4531 126.563 109.588 126.305 128.812 118.881C130.889 118.066 132.742 116.77 134.218 115.098C135.694 113.426 136.751 111.427 137.303 109.266C138.82 103.406 140.625 92.7305 140.625 75C140.625 57.2696 138.82 46.5821 137.303 40.7344ZM128.227 106.945C128.048 107.664 127.702 108.331 127.216 108.89C126.73 109.449 126.119 109.885 125.432 110.162C106.887 117.322 75.3457 117.193 75.041 117.193H75C74.6836 117.193 43.166 117.311 24.6094 110.162C23.9225 109.885 23.3111 109.449 22.8252 108.89C22.3394 108.331 21.993 107.664 21.8145 106.945C20.3906 101.596 18.75 91.7403 18.75 75C18.75 58.2598 20.3906 48.4043 21.7734 43.084C21.9487 42.3608 22.2936 41.6898 22.7796 41.1264C23.2656 40.5629 23.8788 40.1233 24.5684 39.8438C42.4512 32.9356 72.416 32.8125 74.8711 32.8125H75.0293C75.3457 32.8125 106.893 32.7071 125.42 39.8438C126.107 40.121 126.718 40.5571 127.204 41.1162C127.69 41.6754 128.036 42.3417 128.215 43.0606C129.609 48.4043 131.25 58.2598 131.25 75C131.25 91.7403 129.609 101.596 128.227 106.916V106.945Z" fill="#C4302B"/>
</svg>
